<?xml version="1.0" encoding="CP936"?>
<svg xmlns="http://www.w3.org/2000/svg" xmlns:xlink="http://www.w3.org/1999/xlink" width="288px" height="252px" viewBox="0 0 288 252" version="1.1" id="Fig:dens">
  <metadata xmlns:gridsvg="http://www.stat.auckland.ac.nz/~paul/R/gridSVG/">
    <gridsvg:generator name="gridSVG" version="1.6-0" time="2019-02-18 16:37:19"/>
    <gridsvg:argument name="name" value="qc_be/dens.svg"/>
    <gridsvg:argument name="exportCoords" value="none"/>
    <gridsvg:argument name="exportMappings" value="none"/>
    <gridsvg:argument name="exportJS" value="none"/>
    <gridsvg:argument name="res" value="72"/>
    <gridsvg:argument name="prefix" value="Fig:dens"/>
    <gridsvg:argument name="addClasses" value="FALSE"/>
    <gridsvg:argument name="indent" value="TRUE"/>
    <gridsvg:argument name="htmlWrapper" value="FALSE"/>
    <gridsvg:argument name="usePaths" value="none"/>
    <gridsvg:argument name="uniqueNames" value="TRUE"/>
    <gridsvg:separator name="id.sep" value="."/>
    <gridsvg:separator name="gPath.sep" value="::"/>
    <gridsvg:separator name="vpPath.sep" value="::"/>
  </metadata>
  <g transform="translate(0, 252) scale(1, -1)">
    <g id="Fig:densgridSVG" fill="none" stroke="rgb(0,0,0)" stroke-dasharray="none" stroke-width="0.75" font-size="12" font-family="Helvetica, Arial, FreeSans, Liberation Sans, Nimbus Sans L, sans-serif" opacity="1" stroke-linecap="round" stroke-linejoin="round" stroke-miterlimit="10" stroke-opacity="1" fill-opacity="0" font-weight="normal" font-style="normal">
      <g id="Fig:densplot_01.background.1">
        <rect id="Fig:densplot_01.background.1.1" x="0" y="0" width="288" height="252" transform="" fill="none" stroke="none" stroke-opacity="0" fill-opacity="0"/>
      </g>
      <g id="Fig:densplot_01.toplevel.vp.1" font-size="12">
        <g id="Fig:densplot_01.ylab.vp.1">
          <g id="Fig:densplot_01.ylab.1">
            <g id="Fig:densplot_01.ylab.1.1" transform="translate(10.31, 138.09)" stroke-width="0.1">
              <g id="Fig:densplot_01.ylab.1.1.scale" transform="scale(1, -1)">
                <text x="0" y="0" id="Fig:densplot_01.ylab.1.1.text" transform="rotate(-90)" text-anchor="middle" opacity="1" stroke="rgb(0,0,0)" fill="rgb(0,0,0)" stroke-opacity="1" fill-opacity="1" font-size="12" font-weight="normal" font-style="normal">
                  <tspan id="Fig:densplot_01.ylab.1.1.tspan.1" dy="4.31" x="0">Density</tspan>
                </text>
              </g>
            </g>
          </g>
        </g>
        <g id="Fig:densplot_01.figure.vp.1"/>
        <defs>
          <clipPath id="Fig:densplot_01.panel.1.1.vp.1.clipPath">
            <rect x="44.8" y="42.19" width="231.2" height="191.81" fill="none" stroke="none"/>
          </clipPath>
        </defs>
        <g id="Fig:densplot_01.panel.1.1.vp.1" clip-path="url(#Fig:densplot_01.panel.1.1.vp.1.clipPath)"/>
        <g id="Fig:densplot_01.strip.1.1.off.vp.1"/>
        <g id="Fig:densplot_01.strip.left.1.1.off.vp.1">
          <g id="Fig:densplot_01.ticks.left.panel.1.1.1">
            <polyline id="Fig:densplot_01.ticks.left.panel.1.1.1.1" points="44.8,53.96 39.13,53.96" stroke="rgb(0,0,0)" opacity="1" stroke-dasharray="none" stroke-width="0.75" stroke-opacity="1" fill="none"/>
            <polyline id="Fig:densplot_01.ticks.left.panel.1.1.1.2" points="44.8,82.35 39.13,82.35" stroke="rgb(0,0,0)" opacity="1" stroke-dasharray="none" stroke-width="0.75" stroke-opacity="1" fill="none"/>
            <polyline id="Fig:densplot_01.ticks.left.panel.1.1.1.3" points="44.8,110.75 39.13,110.75" stroke="rgb(0,0,0)" opacity="1" stroke-dasharray="none" stroke-width="0.75" stroke-opacity="1" fill="none"/>
            <polyline id="Fig:densplot_01.ticks.left.panel.1.1.1.4" points="44.8,139.14 39.13,139.14" stroke="rgb(0,0,0)" opacity="1" stroke-dasharray="none" stroke-width="0.75" stroke-opacity="1" fill="none"/>
            <polyline id="Fig:densplot_01.ticks.left.panel.1.1.1.5" points="44.8,167.54 39.13,167.54" stroke="rgb(0,0,0)" opacity="1" stroke-dasharray="none" stroke-width="0.75" stroke-opacity="1" fill="none"/>
            <polyline id="Fig:densplot_01.ticks.left.panel.1.1.1.6" points="44.8,195.93 39.13,195.93" stroke="rgb(0,0,0)" opacity="1" stroke-dasharray="none" stroke-width="0.75" stroke-opacity="1" fill="none"/>
            <polyline id="Fig:densplot_01.ticks.left.panel.1.1.1.7" points="44.8,224.32 39.13,224.32" stroke="rgb(0,0,0)" opacity="1" stroke-dasharray="none" stroke-width="0.75" stroke-opacity="1" fill="none"/>
          </g>
          <g id="Fig:densplot_01.ticklabels.left.panel.1.1.1">
            <g id="Fig:densplot_01.ticklabels.left.panel.1.1.1.1" transform="translate(33.47, 53.96)" stroke-width="0.1">
              <g id="Fig:densplot_01.ticklabels.left.panel.1.1.1.1.scale" transform="scale(1, -1)">
                <text x="0" y="0" id="Fig:densplot_01.ticklabels.left.panel.1.1.1.1.text" transform="rotate(-90)" text-anchor="middle" stroke="rgb(0,0,0)" opacity="1" fill="rgb(0,0,0)" stroke-opacity="1" fill-opacity="1" font-size="9.6" font-weight="normal" font-style="normal">
                  <tspan id="Fig:densplot_01.ticklabels.left.panel.1.1.1.1.tspan.1" dy="0" x="0">0.00</tspan>
                </text>
              </g>
            </g>
            <g id="Fig:densplot_01.ticklabels.left.panel.1.1.1.2" transform="translate(33.47, 82.35)" stroke-width="0.1">
              <g id="Fig:densplot_01.ticklabels.left.panel.1.1.1.2.scale" transform="scale(1, -1)">
                <text x="0" y="0" id="Fig:densplot_01.ticklabels.left.panel.1.1.1.2.text" transform="rotate(-90)" text-anchor="middle" stroke="rgb(0,0,0)" opacity="1" fill="rgb(0,0,0)" stroke-opacity="1" fill-opacity="1" font-size="9.6" font-weight="normal" font-style="normal">
                  <tspan id="Fig:densplot_01.ticklabels.left.panel.1.1.1.2.tspan.1" dy="0" x="0">0.05</tspan>
                </text>
              </g>
            </g>
            <g id="Fig:densplot_01.ticklabels.left.panel.1.1.1.3" transform="translate(33.47, 110.75)" stroke-width="0.1">
              <g id="Fig:densplot_01.ticklabels.left.panel.1.1.1.3.scale" transform="scale(1, -1)">
                <text x="0" y="0" id="Fig:densplot_01.ticklabels.left.panel.1.1.1.3.text" transform="rotate(-90)" text-anchor="middle" stroke="rgb(0,0,0)" opacity="1" fill="rgb(0,0,0)" stroke-opacity="1" fill-opacity="1" font-size="9.6" font-weight="normal" font-style="normal">
                  <tspan id="Fig:densplot_01.ticklabels.left.panel.1.1.1.3.tspan.1" dy="0" x="0">0.10</tspan>
                </text>
              </g>
            </g>
            <g id="Fig:densplot_01.ticklabels.left.panel.1.1.1.4" transform="translate(33.47, 139.14)" stroke-width="0.1">
              <g id="Fig:densplot_01.ticklabels.left.panel.1.1.1.4.scale" transform="scale(1, -1)">
                <text x="0" y="0" id="Fig:densplot_01.ticklabels.left.panel.1.1.1.4.text" transform="rotate(-90)" text-anchor="middle" stroke="rgb(0,0,0)" opacity="1" fill="rgb(0,0,0)" stroke-opacity="1" fill-opacity="1" font-size="9.6" font-weight="normal" font-style="normal">
                  <tspan id="Fig:densplot_01.ticklabels.left.panel.1.1.1.4.tspan.1" dy="0" x="0">0.15</tspan>
                </text>
              </g>
            </g>
            <g id="Fig:densplot_01.ticklabels.left.panel.1.1.1.5" transform="translate(33.47, 167.54)" stroke-width="0.1">
              <g id="Fig:densplot_01.ticklabels.left.panel.1.1.1.5.scale" transform="scale(1, -1)">
                <text x="0" y="0" id="Fig:densplot_01.ticklabels.left.panel.1.1.1.5.text" transform="rotate(-90)" text-anchor="middle" stroke="rgb(0,0,0)" opacity="1" fill="rgb(0,0,0)" stroke-opacity="1" fill-opacity="1" font-size="9.6" font-weight="normal" font-style="normal">
                  <tspan id="Fig:densplot_01.ticklabels.left.panel.1.1.1.5.tspan.1" dy="0" x="0">0.20</tspan>
                </text>
              </g>
            </g>
            <g id="Fig:densplot_01.ticklabels.left.panel.1.1.1.6" transform="translate(33.47, 195.93)" stroke-width="0.1">
              <g id="Fig:densplot_01.ticklabels.left.panel.1.1.1.6.scale" transform="scale(1, -1)">
                <text x="0" y="0" id="Fig:densplot_01.ticklabels.left.panel.1.1.1.6.text" transform="rotate(-90)" text-anchor="middle" stroke="rgb(0,0,0)" opacity="1" fill="rgb(0,0,0)" stroke-opacity="1" fill-opacity="1" font-size="9.6" font-weight="normal" font-style="normal">
                  <tspan id="Fig:densplot_01.ticklabels.left.panel.1.1.1.6.tspan.1" dy="0" x="0">0.25</tspan>
                </text>
              </g>
            </g>
            <g id="Fig:densplot_01.ticklabels.left.panel.1.1.1.7" transform="translate(33.47, 224.32)" stroke-width="0.1">
              <g id="Fig:densplot_01.ticklabels.left.panel.1.1.1.7.scale" transform="scale(1, -1)">
                <text x="0" y="0" id="Fig:densplot_01.ticklabels.left.panel.1.1.1.7.text" transform="rotate(-90)" text-anchor="middle" stroke="rgb(0,0,0)" opacity="1" fill="rgb(0,0,0)" stroke-opacity="1" fill-opacity="1" font-size="9.6" font-weight="normal" font-style="normal">
                  <tspan id="Fig:densplot_01.ticklabels.left.panel.1.1.1.7.tspan.1" dy="0" x="0">0.30</tspan>
                </text>
              </g>
            </g>
          </g>
        </g>
        <g id="Fig:densplot_01.panel.1.1.off.vp.1">
          <g id="Fig:densplot_01.ticks.bottom.panel.1.1.1">
            <polyline id="Fig:densplot_01.ticks.bottom.panel.1.1.1.1" points="93.4,42.19 93.4,36.52" stroke="rgb(0,0,0)" opacity="1" stroke-dasharray="none" stroke-width="0.75" stroke-opacity="1" fill="none"/>
            <polyline id="Fig:densplot_01.ticks.bottom.panel.1.1.1.2" points="143.49,42.19 143.49,36.52" stroke="rgb(0,0,0)" opacity="1" stroke-dasharray="none" stroke-width="0.75" stroke-opacity="1" fill="none"/>
            <polyline id="Fig:densplot_01.ticks.bottom.panel.1.1.1.3" points="193.59,42.19 193.59,36.52" stroke="rgb(0,0,0)" opacity="1" stroke-dasharray="none" stroke-width="0.75" stroke-opacity="1" fill="none"/>
            <polyline id="Fig:densplot_01.ticks.bottom.panel.1.1.1.4" points="243.68,42.19 243.68,36.52" stroke="rgb(0,0,0)" opacity="1" stroke-dasharray="none" stroke-width="0.75" stroke-opacity="1" fill="none"/>
          </g>
          <g id="Fig:densplot_01.ticklabels.bottom.panel.1.1.1">
            <g id="Fig:densplot_01.ticklabels.bottom.panel.1.1.1.1" transform="translate(93.4, 30.85)" stroke-width="0.1">
              <g id="Fig:densplot_01.ticklabels.bottom.panel.1.1.1.1.scale" transform="scale(1, -1)">
                <text x="0" y="0" id="Fig:densplot_01.ticklabels.bottom.panel.1.1.1.1.text" text-anchor="middle" stroke="rgb(0,0,0)" opacity="1" fill="rgb(0,0,0)" stroke-opacity="1" fill-opacity="1" font-size="9.6" font-weight="normal" font-style="normal">
                  <tspan id="Fig:densplot_01.ticklabels.bottom.panel.1.1.1.1.tspan.1" dy="7.18" x="0">4</tspan>
                </text>
              </g>
            </g>
            <g id="Fig:densplot_01.ticklabels.bottom.panel.1.1.1.2" transform="translate(143.49, 30.85)" stroke-width="0.1">
              <g id="Fig:densplot_01.ticklabels.bottom.panel.1.1.1.2.scale" transform="scale(1, -1)">
                <text x="0" y="0" id="Fig:densplot_01.ticklabels.bottom.panel.1.1.1.2.text" text-anchor="middle" stroke="rgb(0,0,0)" opacity="1" fill="rgb(0,0,0)" stroke-opacity="1" fill-opacity="1" font-size="9.6" font-weight="normal" font-style="normal">
                  <tspan id="Fig:densplot_01.ticklabels.bottom.panel.1.1.1.2.tspan.1" dy="7.18" x="0">6</tspan>
                </text>
              </g>
            </g>
            <g id="Fig:densplot_01.ticklabels.bottom.panel.1.1.1.3" transform="translate(193.59, 30.85)" stroke-width="0.1">
              <g id="Fig:densplot_01.ticklabels.bottom.panel.1.1.1.3.scale" transform="scale(1, -1)">
                <text x="0" y="0" id="Fig:densplot_01.ticklabels.bottom.panel.1.1.1.3.text" text-anchor="middle" stroke="rgb(0,0,0)" opacity="1" fill="rgb(0,0,0)" stroke-opacity="1" fill-opacity="1" font-size="9.6" font-weight="normal" font-style="normal">
                  <tspan id="Fig:densplot_01.ticklabels.bottom.panel.1.1.1.3.tspan.1" dy="7.18" x="0">8</tspan>
                </text>
              </g>
            </g>
            <g id="Fig:densplot_01.ticklabels.bottom.panel.1.1.1.4" transform="translate(243.68, 30.85)" stroke-width="0.1">
              <g id="Fig:densplot_01.ticklabels.bottom.panel.1.1.1.4.scale" transform="scale(1, -1)">
                <text x="0" y="0" id="Fig:densplot_01.ticklabels.bottom.panel.1.1.1.4.text" text-anchor="middle" stroke="rgb(0,0,0)" opacity="1" fill="rgb(0,0,0)" stroke-opacity="1" fill-opacity="1" font-size="9.6" font-weight="normal" font-style="normal">
                  <tspan id="Fig:densplot_01.ticklabels.bottom.panel.1.1.1.4.tspan.1" dy="7.18" x="0">10</tspan>
                </text>
              </g>
            </g>
          </g>
        </g>
        <defs>
          <clipPath id="Fig:densplot_01.panel.1.1.vp.2.clipPath">
            <rect x="44.8" y="42.19" width="231.2" height="191.81" fill="none" stroke="none"/>
          </clipPath>
        </defs>
        <g id="Fig:densplot_01.panel.1.1.vp.2" clip-path="url(#Fig:densplot_01.panel.1.1.vp.2.clipPath)">
          <g id="Fig:densplot_01.xyplot.lines.group.1.panel.1.1.1">
            <polyline id="Fig:densplot_01.xyplot.lines.group.1.panel.1.1.1.1" points="60.06,54.02 60.45,54.03 60.84,54.06 61.24,54.09 61.63,54.13 62.02,54.18 62.41,54.24 62.8,54.32 63.2,54.42 63.59,54.54 63.98,54.68 64.37,54.85 64.77,55.06 65.16,55.31 65.55,55.6 65.94,55.95 66.34,56.35 66.73,56.81 67.12,57.34 67.51,57.95 67.91,58.64 68.3,59.42 68.69,60.28 69.08,61.24 69.48,62.29 69.87,63.43 70.26,64.69 70.65,66.05 71.04,67.5 71.44,69.04 71.83,70.67 72.22,72.38 72.61,74.18 73.01,76.04 73.4,77.96 73.79,79.93 74.18,81.94 74.58,83.97 74.97,86.02 75.36,88.08 75.75,90.13 76.15,92.16 76.54,94.17 76.93,96.15 77.32,98.09 77.71,99.99 78.11,101.82 78.5,103.59 78.89,105.31 79.28,106.97 79.68,108.56 80.07,110.1 80.46,111.56 80.85,112.95 81.25,114.29 81.64,115.57 82.03,116.79 82.42,117.96 82.82,119.08 83.21,120.15 83.6,121.16 83.99,122.14 84.38,123.07 84.78,123.97 85.17,124.82 85.56,125.64 85.95,126.42 86.35,127.17 86.74,127.88 87.13,128.56 87.52,129.21 87.92,129.84 88.31,130.42 88.7,130.98 89.09,131.51 89.49,132.02 89.88,132.5 90.27,132.96 90.66,133.39 91.05,133.8 91.45,134.19 91.84,134.57 92.23,134.93 92.62,135.27 93.02,135.61 93.41,135.94 93.8,136.26 94.19,136.57 94.59,136.88 94.98,137.19 95.37,137.49 95.76,137.79 96.16,138.09 96.55,138.4 96.94,138.7 97.33,139 97.73,139.31 98.12,139.61 98.51,139.92 98.9,140.22 99.29,140.53 99.69,140.84 100.08,141.16 100.47,141.48 100.86,141.8 101.26,142.13 101.65,142.48 102.04,142.84 102.43,143.21 102.83,143.6 103.22,144.01 103.61,144.44 104,144.9 104.4,145.39 104.79,145.91 105.18,146.45 105.57,147.03 105.96,147.64 106.36,148.29 106.75,148.98 107.14,149.69 107.53,150.43 107.93,151.2 108.32,152 108.71,152.81 109.1,153.65 109.5,154.5 109.89,155.37 110.28,156.23 110.67,157.1 111.07,157.97 111.46,158.84 111.85,159.69 112.24,160.53 112.63,161.35 113.03,162.16 113.42,162.95 113.81,163.72 114.2,164.46 114.6,165.17 114.99,165.86 115.38,166.53 115.77,167.17 116.17,167.79 116.56,168.38 116.95,168.95 117.34,169.5 117.74,170.02 118.13,170.53 118.52,171.01 118.91,171.48 119.3,171.93 119.7,172.37 120.09,172.79 120.48,173.2 120.87,173.61 121.27,174.01 121.66,174.4 122.05,174.8 122.44,175.19 122.84,175.59 123.23,175.99 123.62,176.4 124.01,176.81 124.41,177.24 124.8,177.68 125.19,178.13 125.58,178.59 125.98,179.06 126.37,179.55 126.76,180.05 127.15,180.56 127.54,181.09 127.94,181.62 128.33,182.17 128.72,182.72 129.11,183.29 129.51,183.85 129.9,184.43 130.29,185.01 130.68,185.59 131.08,186.17 131.47,186.75 131.86,187.33 132.25,187.91 132.65,188.48 133.04,189.04 133.43,189.6 133.82,190.15 134.21,190.68 134.61,191.2 135,191.7 135.39,192.19 135.78,192.66 136.18,193.11 136.57,193.54 136.96,193.96 137.35,194.36 137.75,194.73 138.14,195.09 138.53,195.44 138.92,195.77 139.32,196.09 139.71,196.4 140.1,196.7 140.49,196.99 140.88,197.28 141.28,197.56 141.67,197.84 142.06,198.11 142.45,198.38 142.85,198.63 143.24,198.89 143.63,199.13 144.02,199.35 144.42,199.57 144.81,199.77 145.2,199.94 145.59,200.09 145.99,200.22 146.38,200.32 146.77,200.39 147.16,200.43 147.56,200.45 147.95,200.43 148.34,200.39 148.73,200.32 149.12,200.23 149.52,200.13 149.91,200.01 150.3,199.88 150.69,199.74 151.09,199.6 151.48,199.46 151.87,199.33 152.26,199.2 152.66,199.09 153.05,198.98 153.44,198.89 153.83,198.81 154.23,198.73 154.62,198.67 155.01,198.61 155.4,198.55 155.79,198.49 156.19,198.42 156.58,198.35 156.97,198.25 157.36,198.13 157.76,197.98 158.15,197.8 158.54,197.57 158.93,197.3 159.33,196.98 159.72,196.62 160.11,196.19 160.5,195.71 160.9,195.15 161.29,194.54 161.68,193.87 162.07,193.14 162.46,192.34 162.86,191.49 163.25,190.58 163.64,189.6 164.03,188.59 164.43,187.52 164.82,186.42 165.21,185.27 165.6,184.1 166,182.89 166.39,181.66 166.78,180.42 167.17,179.16 167.57,177.9 167.96,176.64 168.35,175.38 168.74,174.14 169.13,172.9 169.53,171.69 169.92,170.5 170.31,169.33 170.7,168.18 171.1,167.07 171.49,165.98 171.88,164.92 172.27,163.88 172.67,162.87 173.06,161.88 173.45,160.92 173.84,159.97 174.24,159.03 174.63,158.11 175.02,157.19 175.41,156.27 175.81,155.36 176.2,154.44 176.59,153.52 176.98,152.59 177.37,151.66 177.77,150.72 178.16,149.77 178.55,148.81 178.94,147.84 179.34,146.87 179.73,145.89 180.12,144.92 180.51,143.94 180.91,142.96 181.3,141.99 181.69,141.03 182.08,140.07 182.48,139.13 182.87,138.2 183.26,137.28 183.65,136.37 184.04,135.48 184.44,134.61 184.83,133.74 185.22,132.89 185.61,132.06 186.01,131.23 186.4,130.41 186.79,129.6 187.18,128.8 187.58,128 187.97,127.21 188.36,126.42 188.75,125.62 189.15,124.83 189.54,124.03 189.93,123.23 190.32,122.42 190.71,121.61 191.11,120.8 191.5,119.98 191.89,119.16 192.28,118.34 192.68,117.51 193.07,116.68 193.46,115.86 193.85,115.03 194.25,114.2 194.64,113.37 195.03,112.55 195.42,111.73 195.82,110.91 196.21,110.1 196.6,109.29 196.99,108.48 197.38,107.69 197.78,106.89 198.17,106.1 198.56,105.32 198.95,104.55 199.35,103.78 199.74,103.02 200.13,102.27 200.52,101.52 200.92,100.78 201.31,100.05 201.7,99.33 202.09,98.63 202.49,97.93 202.88,97.25 203.27,96.58 203.66,95.92 204.06,95.28 204.45,94.65 204.84,94.04 205.23,93.45 205.62,92.87 206.02,92.31 206.41,91.76 206.8,91.23 207.19,90.72 207.59,90.22 207.98,89.73 208.37,89.26 208.76,88.8 209.16,88.35 209.55,87.91 209.94,87.47 210.33,87.05 210.73,86.62 211.12,86.2 211.51,85.79 211.9,85.37 212.29,84.95 212.69,84.53 213.08,84.11 213.47,83.69 213.86,83.27 214.26,82.84 214.65,82.41 215.04,81.98 215.43,81.54 215.83,81.11 216.22,80.67 216.61,80.24 217,79.81 217.4,79.38 217.79,78.95 218.18,78.53 218.57,78.11 218.96,77.7 219.36,77.29 219.75,76.9 220.14,76.51 220.53,76.13 220.93,75.76 221.32,75.41 221.71,75.06 222.1,74.72 222.5,74.39 222.89,74.08 223.28,73.77 223.67,73.48 224.07,73.19 224.46,72.92 224.85,72.66 225.24,72.41 225.64,72.16 226.03,71.93 226.42,71.71 226.81,71.49 227.2,71.28 227.6,71.07 227.99,70.88 228.38,70.68 228.77,70.49 229.17,70.3 229.56,70.11 229.95,69.93 230.34,69.74 230.74,69.55 231.13,69.36 231.52,69.16 231.91,68.97 232.31,68.77 232.7,68.56 233.09,68.35 233.48,68.14 233.87,67.92 234.27,67.69 234.66,67.46 235.05,67.23 235.44,67 235.84,66.75 236.23,66.51 236.62,66.27 237.01,66.02 237.41,65.77 237.8,65.52 238.19,65.27 238.58,65.02 238.98,64.77 239.37,64.52 239.76,64.26 240.15,64.01 240.54,63.75 240.94,63.5 241.33,63.24 241.72,62.97 242.11,62.71 242.51,62.44 242.9,62.16 243.29,61.88 243.68,61.59 244.08,61.29 244.47,60.99 244.86,60.68 245.25,60.37 245.65,60.05 246.04,59.73 246.43,59.4 246.82,59.07 247.21,58.74 247.61,58.41 248,58.09 248.39,57.77 248.78,57.46 249.18,57.16 249.57,56.87 249.96,56.59 250.35,56.32 250.75,56.07 251.14,55.83 251.53,55.62 251.92,55.41 252.32,55.23 252.71,55.06 253.1,54.91 253.49,54.77 253.89,54.65 254.28,54.54 254.67,54.45 255.06,54.37 255.45,54.3 255.85,54.24 256.24,54.19 256.63,54.14 257.02,54.11 257.42,54.08 257.81,54.05 258.2,54.03 258.59,54.02 258.99,54 259.38,53.99 259.77,53.99 260.16,53.98 260.56,53.97" stroke-dasharray="none" stroke="rgb(31,120,180)" stroke-width="0.75" opacity="1" stroke-opacity="1" fill="none"/>
          </g>
          <g id="Fig:densplot_01.xyplot.lines.group.2.panel.1.1.1">
            <polyline id="Fig:densplot_01.xyplot.lines.group.2.panel.1.1.1.1" points="61.62,53.98 62.01,53.99 62.39,54 62.78,54.02 63.17,54.04 63.55,54.07 63.94,54.1 64.33,54.15 64.71,54.2 65.1,54.27 65.48,54.36 65.87,54.47 66.26,54.6 66.64,54.76 67.03,54.96 67.41,55.19 67.8,55.46 68.19,55.77 68.57,56.15 68.96,56.58 69.34,57.08 69.73,57.63 70.12,58.26 70.5,58.96 70.89,59.72 71.27,60.58 71.66,61.51 72.05,62.51 72.43,63.59 72.82,64.74 73.2,65.94 73.59,67.21 73.98,68.54 74.36,69.91 74.75,71.32 75.14,72.76 75.52,74.22 75.91,75.69 76.29,77.18 76.68,78.65 77.07,80.12 77.45,81.58 77.84,83.02 78.22,84.43 78.61,85.82 79,87.19 79.38,88.54 79.77,89.85 80.15,91.15 80.54,92.42 80.93,93.68 81.31,94.92 81.7,96.16 82.08,97.38 82.47,98.6 82.86,99.8 83.24,101 83.63,102.2 84.02,103.38 84.4,104.56 84.79,105.72 85.17,106.86 85.56,107.97 85.95,109.06 86.33,110.11 86.72,111.13 87.1,112.11 87.49,113.05 87.88,113.94 88.26,114.78 88.65,115.57 89.03,116.32 89.42,117.02 89.81,117.68 90.19,118.3 90.58,118.89 90.96,119.44 91.35,119.97 91.74,120.48 92.12,120.98 92.51,121.47 92.9,121.95 93.28,122.44 93.67,122.93 94.05,123.43 94.44,123.94 94.83,124.47 95.21,125.01 95.6,125.57 95.98,126.14 96.37,126.73 96.76,127.34 97.14,127.97 97.53,128.62 97.91,129.28 98.3,129.96 98.69,130.66 99.07,131.38 99.46,132.12 99.84,132.88 100.23,133.66 100.62,134.46 101,135.27 101.39,136.11 101.78,136.96 102.16,137.84 102.55,138.72 102.93,139.63 103.32,140.54 103.71,141.46 104.09,142.38 104.48,143.3 104.86,144.22 105.25,145.14 105.64,146.05 106.02,146.94 106.41,147.82 106.79,148.69 107.18,149.53 107.57,150.36 107.95,151.17 108.34,151.96 108.72,152.73 109.11,153.49 109.5,154.24 109.88,154.97 110.27,155.69 110.66,156.41 111.04,157.12 111.43,157.83 111.81,158.54 112.2,159.25 112.59,159.97 112.97,160.7 113.36,161.44 113.74,162.2 114.13,162.97 114.52,163.75 114.9,164.55 115.29,165.37 115.67,166.2 116.06,167.04 116.45,167.9 116.83,168.76 117.22,169.63 117.6,170.51 117.99,171.38 118.38,172.25 118.76,173.11 119.15,173.96 119.54,174.8 119.92,175.62 120.31,176.42 120.69,177.2 121.08,177.97 121.47,178.71 121.85,179.43 122.24,180.13 122.62,180.82 123.01,181.5 123.4,182.16 123.78,182.82 124.17,183.47 124.55,184.11 124.94,184.76 125.33,185.41 125.71,186.06 126.1,186.72 126.48,187.38 126.87,188.06 127.26,188.74 127.64,189.43 128.03,190.13 128.42,190.84 128.8,191.56 129.19,192.29 129.57,193.03 129.96,193.78 130.35,194.54 130.73,195.31 131.12,196.09 131.5,196.88 131.89,197.68 132.28,198.5 132.66,199.33 133.05,200.17 133.43,201.02 133.82,201.88 134.21,202.75 134.59,203.62 134.98,204.51 135.36,205.39 135.75,206.27 136.14,207.15 136.52,208.03 136.91,208.89 137.3,209.74 137.68,210.56 138.07,211.37 138.45,212.15 138.84,212.89 139.23,213.6 139.61,214.28 140,214.91 140.38,215.5 140.77,216.05 141.16,216.55 141.54,217 141.93,217.41 142.31,217.78 142.7,218.11 143.09,218.4 143.47,218.66 143.86,218.88 144.24,219.08 144.63,219.26 145.02,219.42 145.4,219.57 145.79,219.71 146.18,219.85 146.56,219.99 146.95,220.13 147.33,220.27 147.72,220.42 148.11,220.58 148.49,220.74 148.88,220.91 149.26,221.07 149.65,221.24 150.04,221.41 150.42,221.57 150.81,221.72 151.19,221.86 151.58,221.98 151.97,222.09 152.35,222.16 152.74,222.21 153.12,222.22 153.51,222.2 153.9,222.15 154.28,222.05 154.67,221.91 155.06,221.72 155.44,221.48 155.83,221.19 156.21,220.86 156.6,220.47 156.99,220.04 157.37,219.56 157.76,219.03 158.14,218.45 158.53,217.83 158.92,217.17 159.3,216.47 159.69,215.74 160.07,214.98 160.46,214.19 160.85,213.38 161.23,212.56 161.62,211.71 162,210.86 162.39,209.99 162.78,209.11 163.16,208.23 163.55,207.33 163.94,206.41 164.32,205.49 164.71,204.55 165.09,203.59 165.48,202.61 165.87,201.6 166.25,200.57 166.64,199.52 167.02,198.44 167.41,197.33 167.8,196.21 168.18,195.07 168.57,193.91 168.95,192.74 169.34,191.56 169.73,190.38 170.11,189.2 170.5,188.04 170.88,186.88 171.27,185.73 171.66,184.6 172.04,183.49 172.43,182.38 172.82,181.29 173.2,180.21 173.59,179.13 173.97,178.05 174.36,176.96 174.75,175.87 175.13,174.76 175.52,173.63 175.9,172.47 176.29,171.3 176.68,170.09 177.06,168.86 177.45,167.58 177.83,166.28 178.22,164.95 178.61,163.59 178.99,162.2 179.38,160.77 179.76,159.33 180.15,157.85 180.54,156.35 180.92,154.82 181.31,153.28 181.69,151.72 182.08,150.14 182.47,148.54 182.85,146.94 183.24,145.32 183.63,143.7 184.01,142.07 184.4,140.45 184.78,138.83 185.17,137.21 185.56,135.61 185.94,134.02 186.33,132.45 186.71,130.89 187.1,129.36 187.49,127.86 187.87,126.38 188.26,124.93 188.64,123.51 189.03,122.12 189.42,120.76 189.8,119.43 190.19,118.13 190.57,116.85 190.96,115.6 191.35,114.37 191.73,113.17 192.12,111.98 192.51,110.81 192.89,109.65 193.28,108.5 193.66,107.36 194.05,106.22 194.44,105.09 194.82,103.96 195.21,102.84 195.59,101.72 195.98,100.6 196.37,99.5 196.75,98.4 197.14,97.31 197.52,96.23 197.91,95.17 198.3,94.13 198.68,93.12 199.07,92.12 199.45,91.16 199.84,90.23 200.23,89.33 200.61,88.46 201,87.62 201.39,86.82 201.77,86.06 202.16,85.32 202.54,84.63 202.93,83.96 203.32,83.32 203.7,82.71 204.09,82.13 204.47,81.56 204.86,81.02 205.25,80.49 205.63,79.98 206.02,79.48 206.4,78.99 206.79,78.5 207.18,78.02 207.56,77.55 207.95,77.08 208.33,76.61 208.72,76.15 209.11,75.69 209.49,75.24 209.88,74.79 210.27,74.35 210.65,73.91 211.04,73.48 211.42,73.06 211.81,72.65 212.2,72.25 212.58,71.86 212.97,71.48 213.35,71.1 213.74,70.74 214.13,70.39 214.51,70.05 214.9,69.71 215.28,69.38 215.67,69.06 216.06,68.74 216.44,68.43 216.83,68.13 217.21,67.83 217.6,67.54 217.99,67.25 218.37,66.97 218.76,66.7 219.15,66.43 219.53,66.18 219.92,65.93 220.3,65.68 220.69,65.45 221.08,65.23 221.46,65.01 221.85,64.8 222.23,64.6 222.62,64.41 223.01,64.23 223.39,64.05 223.78,63.88 224.16,63.71 224.55,63.55 224.94,63.4 225.32,63.25 225.71,63.1 226.09,62.96 226.48,62.82 226.87,62.68 227.25,62.54 227.64,62.4 228.03,62.27 228.41,62.13 228.8,62 229.18,61.86 229.57,61.73 229.96,61.59 230.34,61.45 230.73,61.31 231.11,61.17 231.5,61.03 231.89,60.89 232.27,60.75 232.66,60.61 233.04,60.47 233.43,60.33 233.82,60.19 234.2,60.06 234.59,59.93 234.97,59.8 235.36,59.68 235.75,59.56 236.13,59.46 236.52,59.36 236.91,59.26 237.29,59.18 237.68,59.1 238.06,59.03 238.45,58.96 238.84,58.9 239.22,58.85 239.61,58.8 239.99,58.75 240.38,58.7 240.77,58.65 241.15,58.6 241.54,58.55 241.92,58.49 242.31,58.42 242.7,58.34 243.08,58.25 243.47,58.15 243.85,58.03 244.24,57.91 244.63,57.77 245.01,57.62 245.4,57.46 245.79,57.29 246.17,57.1 246.56,56.92 246.94,56.72 247.33,56.53 247.72,56.33 248.1,56.13 248.49,55.94 248.87,55.75 249.26,55.57 249.65,55.39 250.03,55.23 250.42,55.07 250.8,54.93 251.19,54.8 251.58,54.68 251.96,54.57 252.35,54.48 252.73,54.39 253.12,54.32 253.51,54.26 253.89,54.2 254.28,54.16 254.67,54.12 255.05,54.08 255.44,54.06 255.82,54.04 256.21,54.02 256.6,54.01 256.98,53.99 257.37,53.99 257.75,53.98 258.14,53.97 258.53,53.97 258.91,53.97" stroke-dasharray="none" stroke="rgb(31,120,180)" stroke-width="0.75" opacity="1" stroke-opacity="1" fill="none"/>
          </g>
          <g id="Fig:densplot_01.xyplot.lines.group.3.panel.1.1.1">
            <polyline id="Fig:densplot_01.xyplot.lines.group.3.panel.1.1.1.1" points="61.55,53.99 61.93,54 62.32,54.01 62.71,54.03 63.09,54.05 63.48,54.08 63.87,54.12 64.25,54.16 64.64,54.22 65.03,54.3 65.41,54.39 65.8,54.5 66.18,54.63 66.57,54.79 66.96,54.99 67.34,55.22 67.73,55.49 68.12,55.8 68.5,56.16 68.89,56.57 69.28,57.04 69.66,57.57 70.05,58.17 70.44,58.82 70.82,59.55 71.21,60.34 71.6,61.19 71.98,62.12 72.37,63.12 72.75,64.18 73.14,65.3 73.53,66.48 73.91,67.71 74.3,68.98 74.69,70.31 75.07,71.67 75.46,73.05 75.85,74.47 76.23,75.9 76.62,77.34 77.01,78.8 77.39,80.26 77.78,81.72 78.16,83.17 78.55,84.61 78.94,86.04 79.32,87.46 79.71,88.86 80.1,90.24 80.48,91.59 80.87,92.92 81.26,94.22 81.64,95.5 82.03,96.74 82.42,97.96 82.8,99.14 83.19,100.29 83.58,101.4 83.96,102.48 84.35,103.52 84.73,104.53 85.12,105.51 85.51,106.45 85.89,107.35 86.28,108.22 86.67,109.07 87.05,109.89 87.44,110.69 87.83,111.47 88.21,112.24 88.6,112.99 88.99,113.73 89.37,114.47 89.76,115.2 90.14,115.94 90.53,116.67 90.92,117.41 91.3,118.14 91.69,118.89 92.08,119.63 92.46,120.38 92.85,121.13 93.24,121.87 93.62,122.61 94.01,123.35 94.4,124.07 94.78,124.78 95.17,125.48 95.56,126.16 95.94,126.83 96.33,127.48 96.71,128.11 97.1,128.73 97.49,129.34 97.87,129.93 98.26,130.53 98.65,131.12 99.03,131.72 99.42,132.32 99.81,132.94 100.19,133.58 100.58,134.24 100.97,134.92 101.35,135.64 101.74,136.38 102.13,137.15 102.51,137.95 102.9,138.78 103.28,139.62 103.67,140.49 104.06,141.36 104.44,142.24 104.83,143.12 105.22,143.99 105.6,144.84 105.99,145.67 106.38,146.47 106.76,147.24 107.15,147.98 107.54,148.68 107.92,149.33 108.31,149.95 108.69,150.52 109.08,151.07 109.47,151.58 109.85,152.06 110.24,152.52 110.63,152.96 111.01,153.39 111.4,153.82 111.79,154.25 112.17,154.7 112.56,155.16 112.95,155.64 113.33,156.16 113.72,156.71 114.11,157.29 114.49,157.92 114.88,158.59 115.26,159.3 115.65,160.05 116.04,160.85 116.42,161.69 116.81,162.56 117.2,163.47 117.58,164.4 117.97,165.36 118.36,166.34 118.74,167.33 119.13,168.33 119.52,169.34 119.9,170.35 120.29,171.36 120.67,172.36 121.06,173.36 121.45,174.35 121.83,175.32 122.22,176.28 122.61,177.22 122.99,178.15 123.38,179.07 123.77,179.98 124.15,180.87 124.54,181.75 124.93,182.62 125.31,183.48 125.7,184.33 126.09,185.18 126.47,186.01 126.86,186.84 127.24,187.65 127.63,188.46 128.02,189.25 128.4,190.04 128.79,190.81 129.18,191.57 129.56,192.32 129.95,193.05 130.34,193.76 130.72,194.46 131.11,195.14 131.5,195.8 131.88,196.44 132.27,197.07 132.65,197.69 133.04,198.29 133.43,198.89 133.81,199.48 134.2,200.07 134.59,200.67 134.97,201.27 135.36,201.87 135.75,202.49 136.13,203.12 136.52,203.77 136.91,204.44 137.29,205.12 137.68,205.81 138.07,206.51 138.45,207.23 138.84,207.95 139.22,208.68 139.61,209.4 140,210.11 140.38,210.8 140.77,211.48 141.16,212.13 141.54,212.74 141.93,213.33 142.32,213.87 142.7,214.38 143.09,214.84 143.48,215.27 143.86,215.64 144.25,215.98 144.63,216.27 145.02,216.53 145.41,216.76 145.79,216.95 146.18,217.12 146.57,217.27 146.95,217.4 147.34,217.51 147.73,217.61 148.11,217.7 148.5,217.79 148.89,217.86 149.27,217.94 149.66,218.01 150.05,218.08 150.43,218.15 150.82,218.21 151.2,218.28 151.59,218.34 151.98,218.4 152.36,218.46 152.75,218.51 153.14,218.56 153.52,218.6 153.91,218.64 154.3,218.67 154.68,218.68 155.07,218.68 155.46,218.67 155.84,218.63 156.23,218.57 156.61,218.48 157,218.37 157.39,218.22 157.77,218.02 158.16,217.79 158.55,217.51 158.93,217.19 159.32,216.82 159.71,216.4 160.09,215.94 160.48,215.42 160.87,214.86 161.25,214.26 161.64,213.62 162.03,212.94 162.41,212.22 162.8,211.47 163.18,210.69 163.57,209.88 163.96,209.05 164.34,208.19 164.73,207.3 165.12,206.4 165.5,205.47 165.89,204.51 166.28,203.54 166.66,202.53 167.05,201.51 167.44,200.45 167.82,199.37 168.21,198.27 168.59,197.14 168.98,195.97 169.37,194.78 169.75,193.57 170.14,192.33 170.53,191.06 170.91,189.78 171.3,188.47 171.69,187.15 172.07,185.8 172.46,184.45 172.85,183.08 173.23,181.71 173.62,180.33 174.01,178.95 174.39,177.58 174.78,176.2 175.16,174.83 175.55,173.47 175.94,172.12 176.32,170.79 176.71,169.46 177.1,168.15 177.48,166.86 177.87,165.59 178.26,164.33 178.64,163.09 179.03,161.85 179.42,160.64 179.8,159.43 180.19,158.23 180.57,157.03 180.96,155.84 181.35,154.65 181.73,153.46 182.12,152.26 182.51,151.05 182.89,149.83 183.28,148.6 183.67,147.36 184.05,146.1 184.44,144.83 184.83,143.54 185.21,142.24 185.6,140.92 185.99,139.59 186.37,138.25 186.76,136.89 187.14,135.53 187.53,134.16 187.92,132.78 188.3,131.4 188.69,130.02 189.08,128.64 189.46,127.26 189.85,125.89 190.24,124.53 190.62,123.18 191.01,121.85 191.4,120.53 191.78,119.23 192.17,117.95 192.56,116.69 192.94,115.46 193.33,114.25 193.71,113.06 194.1,111.9 194.49,110.76 194.87,109.64 195.26,108.55 195.65,107.47 196.03,106.41 196.42,105.37 196.81,104.35 197.19,103.34 197.58,102.34 197.97,101.35 198.35,100.37 198.74,99.39 199.12,98.42 199.51,97.46 199.9,96.5 200.28,95.55 200.67,94.6 201.06,93.66 201.44,92.73 201.83,91.8 202.22,90.89 202.6,89.98 202.99,89.09 203.38,88.21 203.76,87.35 204.15,86.51 204.54,85.68 204.92,84.88 205.31,84.11 205.69,83.36 206.08,82.63 206.47,81.93 206.85,81.26 207.24,80.62 207.63,80 208.01,79.42 208.4,78.86 208.79,78.33 209.17,77.82 209.56,77.33 209.95,76.86 210.33,76.41 210.72,75.98 211.1,75.56 211.49,75.15 211.88,74.74 212.26,74.34 212.65,73.94 213.04,73.55 213.42,73.15 213.81,72.75 214.2,72.35 214.58,71.95 214.97,71.54 215.36,71.13 215.74,70.72 216.13,70.31 216.52,69.9 216.9,69.5 217.29,69.1 217.67,68.71 218.06,68.33 218.45,67.95 218.83,67.59 219.22,67.25 219.61,66.92 219.99,66.6 220.38,66.3 220.77,66.01 221.15,65.74 221.54,65.49 221.93,65.25 222.31,65.03 222.7,64.82 223.08,64.62 223.47,64.43 223.86,64.26 224.24,64.09 224.63,63.93 225.02,63.78 225.4,63.63 225.79,63.49 226.18,63.35 226.56,63.21 226.95,63.07 227.34,62.92 227.72,62.78 228.11,62.64 228.5,62.49 228.88,62.34 229.27,62.18 229.65,62.02 230.04,61.86 230.43,61.69 230.81,61.51 231.2,61.34 231.59,61.16 231.97,60.98 232.36,60.8 232.75,60.62 233.13,60.44 233.52,60.27 233.91,60.09 234.29,59.92 234.68,59.76 235.06,59.6 235.45,59.46 235.84,59.32 236.22,59.18 236.61,59.06 237,58.94 237.38,58.84 237.77,58.74 238.16,58.65 238.54,58.56 238.93,58.49 239.32,58.41 239.7,58.34 240.09,58.28 240.48,58.21 240.86,58.15 241.25,58.08 241.63,58.01 242.02,57.94 242.41,57.86 242.79,57.77 243.18,57.68 243.57,57.58 243.95,57.48 244.34,57.36 244.73,57.24 245.11,57.11 245.5,56.97 245.89,56.82 246.27,56.67 246.66,56.51 247.04,56.35 247.43,56.18 247.82,56.01 248.2,55.85 248.59,55.69 248.98,55.53 249.36,55.37 249.75,55.22 250.14,55.08 250.52,54.95 250.91,54.83 251.3,54.71 251.68,54.61 252.07,54.51 252.46,54.43 252.84,54.36 253.23,54.29 253.61,54.23 254,54.18 254.39,54.14 254.77,54.11 255.16,54.08 255.55,54.05 255.93,54.03 256.32,54.02 256.71,54 257.09,53.99 257.48,53.98 257.87,53.98 258.25,53.97 258.64,53.97 259.02,53.97" stroke-dasharray="none" stroke="rgb(31,120,180)" stroke-width="0.75" opacity="1" stroke-opacity="1" fill="none"/>
          </g>
          <g id="Fig:densplot_01.xyplot.lines.group.4.panel.1.1.1">
            <polyline id="Fig:densplot_01.xyplot.lines.group.4.panel.1.1.1.1" points="61.11,53.99 61.49,54.01 61.88,54.02 62.27,54.04 62.66,54.07 63.05,54.11 63.44,54.15 63.83,54.21 64.21,54.29 64.6,54.38 64.99,54.49 65.38,54.63 65.77,54.8 66.16,55.01 66.55,55.25 66.93,55.54 67.32,55.88 67.71,56.28 68.1,56.74 68.49,57.26 68.88,57.87 69.27,58.55 69.66,59.31 70.04,60.16 70.43,61.09 70.82,62.11 71.21,63.21 71.6,64.41 71.99,65.69 72.38,67.05 72.76,68.48 73.15,69.97 73.54,71.51 73.93,73.11 74.32,74.75 74.71,76.41 75.1,78.09 75.48,79.78 75.87,81.47 76.26,83.15 76.65,84.8 77.04,86.43 77.43,88.02 77.82,89.58 78.21,91.1 78.59,92.57 78.98,94.01 79.37,95.39 79.76,96.73 80.15,98.02 80.54,99.28 80.93,100.5 81.31,101.69 81.7,102.84 82.09,103.98 82.48,105.08 82.87,106.17 83.26,107.23 83.65,108.29 84.04,109.33 84.42,110.36 84.81,111.39 85.2,112.4 85.59,113.41 85.98,114.41 86.37,115.4 86.76,116.38 87.14,117.35 87.53,118.32 87.92,119.27 88.31,120.2 88.7,121.12 89.09,122.03 89.48,122.91 89.86,123.78 90.25,124.62 90.64,125.44 91.03,126.22 91.42,126.99 91.81,127.72 92.2,128.43 92.59,129.1 92.97,129.75 93.36,130.36 93.75,130.95 94.14,131.51 94.53,132.05 94.92,132.57 95.31,133.06 95.69,133.54 96.08,133.99 96.47,134.44 96.86,134.87 97.25,135.3 97.64,135.72 98.03,136.14 98.41,136.55 98.8,136.97 99.19,137.39 99.58,137.82 99.97,138.25 100.36,138.69 100.75,139.14 101.14,139.61 101.52,140.09 101.91,140.58 102.3,141.09 102.69,141.62 103.08,142.16 103.47,142.72 103.86,143.3 104.24,143.91 104.63,144.53 105.02,145.17 105.41,145.82 105.8,146.49 106.19,147.18 106.58,147.88 106.97,148.59 107.35,149.31 107.74,150.03 108.13,150.75 108.52,151.48 108.91,152.2 109.3,152.92 109.69,153.63 110.07,154.33 110.46,155.02 110.85,155.7 111.24,156.37 111.63,157.03 112.02,157.68 112.41,158.33 112.79,158.96 113.18,159.59 113.57,160.22 113.96,160.85 114.35,161.48 114.74,162.12 115.13,162.77 115.52,163.44 115.9,164.12 116.29,164.83 116.68,165.56 117.07,166.32 117.46,167.1 117.85,167.92 118.24,168.77 118.62,169.65 119.01,170.56 119.4,171.49 119.79,172.45 120.18,173.43 120.57,174.42 120.96,175.43 121.34,176.44 121.73,177.45 122.12,178.45 122.51,179.45 122.9,180.43 123.29,181.38 123.68,182.32 124.07,183.22 124.45,184.1 124.84,184.94 125.23,185.74 125.62,186.51 126.01,187.24 126.4,187.94 126.79,188.61 127.17,189.24 127.56,189.85 127.95,190.44 128.34,191 128.73,191.54 129.12,192.08 129.51,192.6 129.89,193.11 130.28,193.63 130.67,194.14 131.06,194.66 131.45,195.19 131.84,195.72 132.23,196.26 132.62,196.81 133,197.38 133.39,197.95 133.78,198.53 134.17,199.11 134.56,199.7 134.95,200.29 135.34,200.88 135.72,201.46 136.11,202.03 136.5,202.59 136.89,203.13 137.28,203.66 137.67,204.17 138.06,204.65 138.45,205.11 138.83,205.55 139.22,205.97 139.61,206.36 140,206.74 140.39,207.1 140.78,207.44 141.17,207.77 141.55,208.1 141.94,208.42 142.33,208.73 142.72,209.05 143.11,209.37 143.5,209.69 143.89,210.01 144.27,210.34 144.66,210.68 145.05,211.01 145.44,211.35 145.83,211.69 146.22,212.03 146.61,212.36 147,212.69 147.38,213 147.77,213.31 148.16,213.59 148.55,213.86 148.94,214.11 149.33,214.34 149.72,214.53 150.1,214.7 150.49,214.83 150.88,214.93 151.27,214.99 151.66,215.02 152.05,215 152.44,214.95 152.82,214.84 153.21,214.68 153.6,214.48 153.99,214.24 154.38,213.95 154.77,213.61 155.16,213.22 155.55,212.77 155.93,212.28 156.32,211.75 156.71,211.18 157.1,210.56 157.49,209.91 157.88,209.21 158.27,208.48 158.65,207.72 159.04,206.93 159.43,206.11 159.82,205.26 160.21,204.4 160.6,203.51 160.99,202.61 161.38,201.7 161.76,200.78 162.15,199.86 162.54,198.93 162.93,198.01 163.32,197.09 163.71,196.17 164.1,195.27 164.48,194.39 164.87,193.51 165.26,192.66 165.65,191.82 166.04,191 166.43,190.19 166.82,189.4 167.2,188.62 167.59,187.85 167.98,187.07 168.37,186.3 168.76,185.52 169.15,184.72 169.54,183.91 169.93,183.07 170.31,182.21 170.7,181.31 171.09,180.38 171.48,179.41 171.87,178.4 172.26,177.34 172.65,176.25 173.03,175.12 173.42,173.95 173.81,172.75 174.2,171.51 174.59,170.25 174.98,168.97 175.37,167.66 175.75,166.34 176.14,165.01 176.53,163.67 176.92,162.32 177.31,160.96 177.7,159.61 178.09,158.24 178.48,156.88 178.86,155.52 179.25,154.16 179.64,152.8 180.03,151.44 180.42,150.09 180.81,148.73 181.2,147.39 181.58,146.04 181.97,144.7 182.36,143.37 182.75,142.04 183.14,140.72 183.53,139.42 183.92,138.12 184.31,136.84 184.69,135.58 185.08,134.33 185.47,133.11 185.86,131.9 186.25,130.72 186.64,129.56 187.03,128.43 187.41,127.32 187.8,126.25 188.19,125.2 188.58,124.18 188.97,123.19 189.36,122.23 189.75,121.3 190.13,120.39 190.52,119.51 190.91,118.64 191.3,117.8 191.69,116.97 192.08,116.15 192.47,115.35 192.86,114.54 193.24,113.74 193.63,112.93 194.02,112.12 194.41,111.3 194.8,110.46 195.19,109.62 195.58,108.76 195.96,107.88 196.35,106.98 196.74,106.07 197.13,105.14 197.52,104.2 197.91,103.25 198.3,102.29 198.68,101.32 199.07,100.34 199.46,99.36 199.85,98.39 200.24,97.42 200.63,96.45 201.02,95.5 201.41,94.56 201.79,93.64 202.18,92.74 202.57,91.85 202.96,90.99 203.35,90.15 203.74,89.34 204.13,88.55 204.51,87.79 204.9,87.05 205.29,86.33 205.68,85.63 206.07,84.96 206.46,84.31 206.85,83.68 207.24,83.06 207.62,82.47 208.01,81.88 208.4,81.32 208.79,80.76 209.18,80.22 209.57,79.69 209.96,79.17 210.34,78.66 210.73,78.15 211.12,77.66 211.51,77.18 211.9,76.71 212.29,76.25 212.68,75.8 213.06,75.36 213.45,74.93 213.84,74.51 214.23,74.11 214.62,73.72 215.01,73.34 215.4,72.98 215.79,72.63 216.17,72.3 216.56,71.98 216.95,71.67 217.34,71.38 217.73,71.11 218.12,70.85 218.51,70.6 218.89,70.36 219.28,70.13 219.67,69.91 220.06,69.7 220.45,69.49 220.84,69.3 221.23,69.1 221.61,68.91 222,68.72 222.39,68.54 222.78,68.35 223.17,68.16 223.56,67.96 223.95,67.77 224.34,67.56 224.72,67.36 225.11,67.15 225.5,66.93 225.89,66.71 226.28,66.48 226.67,66.24 227.06,66.01 227.44,65.76 227.83,65.52 228.22,65.27 228.61,65.02 229,64.77 229.39,64.52 229.78,64.27 230.16,64.02 230.55,63.77 230.94,63.53 231.33,63.29 231.72,63.06 232.11,62.84 232.5,62.62 232.89,62.41 233.27,62.21 233.66,62.02 234.05,61.84 234.44,61.67 234.83,61.52 235.22,61.37 235.61,61.24 235.99,61.11 236.38,61 236.77,60.9 237.16,60.81 237.55,60.73 237.94,60.66 238.33,60.59 238.72,60.53 239.1,60.48 239.49,60.42 239.88,60.36 240.27,60.31 240.66,60.24 241.05,60.18 241.44,60.1 241.82,60.01 242.21,59.91 242.6,59.8 242.99,59.68 243.38,59.54 243.77,59.39 244.16,59.22 244.54,59.03 244.93,58.84 245.32,58.63 245.71,58.4 246.1,58.17 246.49,57.93 246.88,57.69 247.27,57.44 247.65,57.19 248.04,56.94 248.43,56.69 248.82,56.45 249.21,56.21 249.6,55.99 249.99,55.78 250.37,55.57 250.76,55.39 251.15,55.21 251.54,55.05 251.93,54.9 252.32,54.77 252.71,54.65 253.09,54.54 253.48,54.45 253.87,54.37 254.26,54.3 254.65,54.24 255.04,54.19 255.43,54.14 255.82,54.11 256.2,54.08 256.59,54.05 256.98,54.03 257.37,54.02 257.76,54 258.15,53.99 258.54,53.98 258.92,53.98 259.31,53.97 259.7,53.97" stroke-dasharray="none" stroke="rgb(31,120,180)" stroke-width="0.75" opacity="1" stroke-opacity="1" fill="none"/>
          </g>
          <g id="Fig:densplot_01.xyplot.lines.group.5.panel.1.1.1">
            <polyline id="Fig:densplot_01.xyplot.lines.group.5.panel.1.1.1.1" points="60.15,54 60.54,54.02 60.93,54.04 61.32,54.06 61.72,54.09 62.11,54.13 62.5,54.18 62.89,54.25 63.29,54.33 63.68,54.43 64.07,54.55 64.46,54.69 64.86,54.87 65.25,55.08 65.64,55.33 66.03,55.63 66.43,55.98 66.82,56.38 67.21,56.84 67.6,57.38 67.99,58 68.39,58.69 68.78,59.46 69.17,60.32 69.56,61.27 69.96,62.32 70.35,63.47 70.74,64.72 71.13,66.05 71.53,67.47 71.92,68.98 72.31,70.58 72.7,72.27 73.1,74.01 73.49,75.82 73.88,77.68 74.27,79.58 74.67,81.51 75.06,83.46 75.45,85.43 75.84,87.39 76.24,89.34 76.63,91.27 77.02,93.18 77.41,95.06 77.8,96.88 78.2,98.66 78.59,100.4 78.98,102.08 79.37,103.7 79.77,105.28 80.16,106.79 80.55,108.25 80.94,109.65 81.34,111.01 81.73,112.32 82.12,113.59 82.51,114.82 82.91,116 83.3,117.15 83.69,118.26 84.08,119.35 84.48,120.41 84.87,121.44 85.26,122.45 85.65,123.42 86.04,124.38 86.44,125.31 86.83,126.21 87.22,127.09 87.61,127.94 88.01,128.76 88.4,129.54 88.79,130.3 89.18,131.02 89.58,131.72 89.97,132.38 90.36,133 90.75,133.59 91.15,134.14 91.54,134.67 91.93,135.16 92.32,135.63 92.72,136.07 93.11,136.48 93.5,136.87 93.89,137.25 94.29,137.61 94.68,137.95 95.07,138.29 95.46,138.63 95.85,138.96 96.25,139.29 96.64,139.63 97.03,139.97 97.42,140.32 97.82,140.68 98.21,141.05 98.6,141.44 98.99,141.84 99.39,142.25 99.78,142.68 100.17,143.12 100.56,143.58 100.96,144.05 101.35,144.53 101.74,145.03 102.13,145.55 102.53,146.08 102.92,146.62 103.31,147.17 103.7,147.75 104.1,148.33 104.49,148.93 104.88,149.55 105.27,150.18 105.66,150.82 106.06,151.49 106.45,152.17 106.84,152.86 107.23,153.57 107.63,154.3 108.02,155.04 108.41,155.79 108.8,156.56 109.2,157.34 109.59,158.13 109.98,158.93 110.37,159.73 110.77,160.54 111.16,161.35 111.55,162.17 111.94,162.98 112.34,163.78 112.73,164.58 113.12,165.37 113.51,166.15 113.9,166.92 114.3,167.67 114.69,168.4 115.08,169.12 115.47,169.81 115.87,170.49 116.26,171.14 116.65,171.76 117.04,172.36 117.44,172.93 117.83,173.48 118.22,174 118.61,174.49 119.01,174.95 119.4,175.39 119.79,175.79 120.18,176.16 120.58,176.5 120.97,176.82 121.36,177.11 121.75,177.37 122.15,177.6 122.54,177.81 122.93,178 123.32,178.18 123.71,178.34 124.11,178.5 124.5,178.65 124.89,178.81 125.28,178.98 125.68,179.17 126.07,179.37 126.46,179.6 126.85,179.86 127.25,180.16 127.64,180.5 128.03,180.88 128.42,181.3 128.82,181.77 129.21,182.27 129.6,182.83 129.99,183.43 130.39,184.06 130.78,184.73 131.17,185.42 131.56,186.14 131.95,186.88 132.35,187.63 132.74,188.38 133.13,189.14 133.52,189.88 133.92,190.62 134.31,191.34 134.7,192.04 135.09,192.71 135.49,193.34 135.88,193.95 136.27,194.51 136.66,195.03 137.06,195.51 137.45,195.93 137.84,196.3 138.23,196.63 138.63,196.91 139.02,197.14 139.41,197.32 139.8,197.46 140.2,197.55 140.59,197.6 140.98,197.62 141.37,197.61 141.76,197.57 142.16,197.52 142.55,197.44 142.94,197.36 143.33,197.27 143.73,197.18 144.12,197.11 144.51,197.04 144.9,196.99 145.3,196.97 145.69,196.96 146.08,196.99 146.47,197.04 146.87,197.12 147.26,197.23 147.65,197.37 148.04,197.53 148.44,197.73 148.83,197.94 149.22,198.16 149.61,198.4 150.01,198.65 150.4,198.9 150.79,199.15 151.18,199.38 151.57,199.6 151.97,199.8 152.36,199.97 152.75,200.11 153.14,200.21 153.54,200.26 153.93,200.27 154.32,200.23 154.71,200.13 155.11,199.99 155.5,199.78 155.89,199.51 156.28,199.18 156.68,198.8 157.07,198.37 157.46,197.88 157.85,197.35 158.25,196.75 158.64,196.11 159.03,195.44 159.42,194.72 159.81,193.97 160.21,193.18 160.6,192.37 160.99,191.53 161.38,190.67 161.78,189.78 162.17,188.89 162.56,187.98 162.95,187.06 163.35,186.12 163.74,185.19 164.13,184.24 164.52,183.29 164.92,182.34 165.31,181.39 165.7,180.43 166.09,179.48 166.49,178.52 166.88,177.57 167.27,176.62 167.66,175.66 168.06,174.71 168.45,173.77 168.84,172.83 169.23,171.89 169.62,170.96 170.02,170.04 170.41,169.12 170.8,168.21 171.19,167.32 171.59,166.43 171.98,165.55 172.37,164.68 172.76,163.82 173.16,162.96 173.55,162.11 173.94,161.27 174.33,160.43 174.73,159.59 175.12,158.75 175.51,157.91 175.9,157.06 176.3,156.2 176.69,155.32 177.08,154.44 177.47,153.54 177.86,152.62 178.26,151.69 178.65,150.74 179.04,149.77 179.43,148.78 179.83,147.77 180.22,146.75 180.61,145.71 181,144.67 181.4,143.61 181.79,142.54 182.18,141.46 182.57,140.38 182.97,139.3 183.36,138.22 183.75,137.14 184.14,136.06 184.54,134.99 184.93,133.93 185.32,132.88 185.71,131.84 186.11,130.81 186.5,129.79 186.89,128.79 187.28,127.8 187.67,126.82 188.07,125.86 188.46,124.92 188.85,123.99 189.24,123.08 189.64,122.19 190.03,121.31 190.42,120.46 190.81,119.62 191.21,118.8 191.6,118 191.99,117.23 192.38,116.47 192.78,115.73 193.17,115.01 193.56,114.3 193.95,113.61 194.35,112.94 194.74,112.28 195.13,111.64 195.52,111.01 195.92,110.38 196.31,109.77 196.7,109.16 197.09,108.56 197.48,107.96 197.88,107.36 198.27,106.77 198.66,106.17 199.05,105.57 199.45,104.98 199.84,104.37 200.23,103.77 200.62,103.16 201.02,102.54 201.41,101.92 201.8,101.29 202.19,100.66 202.59,100.02 202.98,99.37 203.37,98.72 203.76,98.06 204.16,97.39 204.55,96.72 204.94,96.04 205.33,95.35 205.72,94.66 206.12,93.96 206.51,93.25 206.9,92.55 207.29,91.84 207.69,91.13 208.08,90.42 208.47,89.72 208.86,89.02 209.26,88.33 209.65,87.65 210.04,86.99 210.43,86.34 210.83,85.71 211.22,85.1 211.61,84.51 212,83.95 212.4,83.41 212.79,82.91 213.18,82.43 213.57,81.97 213.97,81.54 214.36,81.13 214.75,80.75 215.14,80.39 215.53,80.05 215.93,79.73 216.32,79.42 216.71,79.12 217.1,78.83 217.5,78.55 217.89,78.27 218.28,78 218.67,77.73 219.07,77.45 219.46,77.17 219.85,76.89 220.24,76.61 220.64,76.32 221.03,76.03 221.42,75.73 221.81,75.43 222.21,75.13 222.6,74.82 222.99,74.51 223.38,74.21 223.77,73.9 224.17,73.6 224.56,73.3 224.95,73.01 225.34,72.71 225.74,72.43 226.13,72.15 226.52,71.88 226.91,71.61 227.31,71.36 227.7,71.1 228.09,70.86 228.48,70.63 228.88,70.4 229.27,70.17 229.66,69.96 230.05,69.74 230.45,69.53 230.84,69.33 231.23,69.13 231.62,68.93 232.02,68.73 232.41,68.53 232.8,68.33 233.19,68.13 233.58,67.93 233.98,67.73 234.37,67.52 234.76,67.31 235.15,67.1 235.55,66.88 235.94,66.66 236.33,66.44 236.72,66.21 237.12,65.98 237.51,65.74 237.9,65.5 238.29,65.25 238.69,64.99 239.08,64.74 239.47,64.47 239.86,64.2 240.26,63.93 240.65,63.65 241.04,63.36 241.43,63.07 241.83,62.77 242.22,62.46 242.61,62.15 243,61.83 243.39,61.51 243.79,61.18 244.18,60.84 244.57,60.5 244.96,60.15 245.36,59.81 245.75,59.46 246.14,59.11 246.53,58.77 246.93,58.43 247.32,58.1 247.71,57.77 248.1,57.45 248.5,57.15 248.89,56.85 249.28,56.58 249.67,56.31 250.07,56.06 250.46,55.83 250.85,55.61 251.24,55.41 251.63,55.23 252.03,55.06 252.42,54.91 252.81,54.78 253.2,54.65 253.6,54.55 253.99,54.45 254.38,54.37 254.77,54.31 255.17,54.25 255.56,54.19 255.95,54.15 256.34,54.11 256.74,54.08 257.13,54.06 257.52,54.04 257.91,54.02 258.31,54.01 258.7,54 259.09,53.99 259.48,53.98 259.88,53.98 260.27,53.97 260.66,53.97" stroke-dasharray="none" stroke="rgb(31,120,180)" stroke-width="0.75" opacity="1" stroke-opacity="1" fill="none"/>
          </g>
          <g id="Fig:densplot_01.xyplot.lines.group.6.panel.1.1.1">
            <polyline id="Fig:densplot_01.xyplot.lines.group.6.panel.1.1.1.1" points="59,54.02 59.4,54.04 59.79,54.06 60.19,54.09 60.59,54.13 60.98,54.18 61.38,54.23 61.78,54.31 62.18,54.4 62.57,54.5 62.97,54.64 63.37,54.79 63.76,54.98 64.16,55.2 64.56,55.46 64.95,55.77 65.35,56.13 65.75,56.54 66.14,57.02 66.54,57.56 66.94,58.18 67.33,58.89 67.73,59.67 68.13,60.55 68.53,61.51 68.92,62.57 69.32,63.75 69.72,65.03 70.11,66.42 70.51,67.91 70.91,69.49 71.3,71.18 71.7,72.98 72.1,74.87 72.49,76.85 72.89,78.9 73.29,81.03 73.68,83.21 74.08,85.46 74.48,87.75 74.88,90.07 75.27,92.41 75.67,94.75 76.07,97.1 76.46,99.44 76.86,101.75 77.26,104.04 77.65,106.28 78.05,108.47 78.45,110.61 78.84,112.69 79.24,114.69 79.64,116.62 80.03,118.47 80.43,120.25 80.83,121.95 81.23,123.58 81.62,125.11 82.02,126.56 82.42,127.93 82.81,129.23 83.21,130.45 83.61,131.61 84,132.68 84.4,133.68 84.8,134.63 85.19,135.51 85.59,136.33 85.99,137.11 86.38,137.83 86.78,138.5 87.18,139.13 87.58,139.72 87.97,140.28 88.37,140.81 88.77,141.3 89.16,141.77 89.56,142.22 89.96,142.65 90.35,143.06 90.75,143.46 91.15,143.85 91.54,144.23 91.94,144.6 92.34,144.97 92.73,145.33 93.13,145.7 93.53,146.06 93.93,146.42 94.32,146.79 94.72,147.16 95.12,147.53 95.51,147.92 95.91,148.3 96.31,148.7 96.7,149.11 97.1,149.52 97.5,149.95 97.89,150.39 98.29,150.84 98.69,151.3 99.08,151.78 99.48,152.28 99.88,152.78 100.28,153.3 100.67,153.83 101.07,154.37 101.47,154.93 101.86,155.49 102.26,156.06 102.66,156.64 103.05,157.22 103.45,157.81 103.85,158.4 104.24,158.98 104.64,159.56 105.04,160.14 105.43,160.71 105.83,161.28 106.23,161.83 106.63,162.37 107.02,162.9 107.42,163.42 107.82,163.92 108.21,164.41 108.61,164.88 109.01,165.33 109.4,165.77 109.8,166.2 110.2,166.61 110.59,167.01 110.99,167.4 111.39,167.78 111.78,168.16 112.18,168.53 112.58,168.9 112.98,169.26 113.37,169.63 113.77,170.01 114.17,170.39 114.56,170.79 114.96,171.19 115.36,171.6 115.75,172.03 116.15,172.47 116.55,172.93 116.94,173.4 117.34,173.88 117.74,174.37 118.13,174.87 118.53,175.37 118.93,175.88 119.33,176.39 119.72,176.9 120.12,177.4 120.52,177.9 120.91,178.38 121.31,178.84 121.71,179.29 122.1,179.71 122.5,180.1 122.9,180.47 123.29,180.81 123.69,181.12 124.09,181.39 124.48,181.63 124.88,181.83 125.28,182.01 125.68,182.15 126.07,182.25 126.47,182.33 126.87,182.38 127.26,182.4 127.66,182.39 128.06,182.37 128.45,182.33 128.85,182.26 129.25,182.19 129.64,182.1 130.04,182 130.44,181.9 130.83,181.8 131.23,181.69 131.63,181.58 132.03,181.48 132.42,181.38 132.82,181.29 133.22,181.2 133.61,181.12 134.01,181.05 134.41,180.99 134.8,180.93 135.2,180.89 135.6,180.85 135.99,180.82 136.39,180.79 136.79,180.77 137.18,180.76 137.58,180.74 137.98,180.73 138.38,180.71 138.77,180.69 139.17,180.67 139.57,180.64 139.96,180.61 140.36,180.57 140.76,180.51 141.15,180.45 141.55,180.38 141.95,180.3 142.34,180.2 142.74,180.1 143.14,179.99 143.53,179.87 143.93,179.74 144.33,179.61 144.73,179.47 145.12,179.32 145.52,179.17 145.92,179.02 146.31,178.86 146.71,178.7 147.11,178.55 147.5,178.39 147.9,178.23 148.3,178.07 148.69,177.92 149.09,177.76 149.49,177.61 149.88,177.46 150.28,177.32 150.68,177.17 151.08,177.03 151.47,176.89 151.87,176.75 152.27,176.61 152.66,176.46 153.06,176.32 153.46,176.17 153.85,176.01 154.25,175.84 154.65,175.66 155.04,175.47 155.44,175.27 155.84,175.04 156.23,174.8 156.63,174.53 157.03,174.23 157.43,173.91 157.82,173.56 158.22,173.18 158.62,172.76 159.01,172.3 159.41,171.81 159.81,171.29 160.2,170.74 160.6,170.14 161,169.52 161.39,168.86 161.79,168.18 162.19,167.47 162.58,166.74 162.98,165.98 163.38,165.21 163.78,164.43 164.17,163.64 164.57,162.84 164.97,162.04 165.36,161.24 165.76,160.44 166.16,159.65 166.55,158.86 166.95,158.08 167.35,157.32 167.74,156.56 168.14,155.82 168.54,155.09 168.93,154.37 169.33,153.67 169.73,152.97 170.13,152.3 170.52,151.63 170.92,150.98 171.32,150.34 171.71,149.72 172.11,149.11 172.51,148.52 172.9,147.94 173.3,147.38 173.7,146.84 174.09,146.32 174.49,145.81 174.89,145.33 175.28,144.87 175.68,144.43 176.08,144.02 176.48,143.63 176.87,143.26 177.27,142.91 177.67,142.57 178.06,142.26 178.46,141.96 178.86,141.68 179.25,141.4 179.65,141.13 180.05,140.86 180.44,140.59 180.84,140.31 181.24,140.02 181.63,139.72 182.03,139.4 182.43,139.06 182.83,138.68 183.22,138.28 183.62,137.84 184.02,137.37 184.41,136.86 184.81,136.32 185.21,135.73 185.6,135.11 186,134.44 186.4,133.74 186.79,133.01 187.19,132.25 187.59,131.46 187.98,130.64 188.38,129.81 188.78,128.95 189.18,128.09 189.57,127.21 189.97,126.33 190.37,125.45 190.76,124.57 191.16,123.7 191.56,122.83 191.95,121.98 192.35,121.14 192.75,120.32 193.14,119.52 193.54,118.74 193.94,117.98 194.33,117.24 194.73,116.53 195.13,115.83 195.53,115.16 195.92,114.51 196.32,113.88 196.72,113.28 197.11,112.69 197.51,112.12 197.91,111.58 198.3,111.04 198.7,110.53 199.1,110.03 199.49,109.54 199.89,109.06 200.29,108.6 200.68,108.14 201.08,107.68 201.48,107.23 201.88,106.79 202.27,106.34 202.67,105.89 203.07,105.43 203.46,104.97 203.86,104.51 204.26,104.04 204.65,103.55 205.05,103.06 205.45,102.56 205.84,102.04 206.24,101.52 206.64,100.98 207.03,100.44 207.43,99.89 207.83,99.33 208.23,98.76 208.62,98.19 209.02,97.62 209.42,97.04 209.81,96.47 210.21,95.9 210.61,95.34 211,94.79 211.4,94.24 211.8,93.71 212.19,93.19 212.59,92.68 212.99,92.19 213.38,91.72 213.78,91.26 214.18,90.82 214.58,90.39 214.97,89.99 215.37,89.59 215.77,89.22 216.16,88.85 216.56,88.49 216.96,88.14 217.35,87.8 217.75,87.47 218.15,87.13 218.54,86.8 218.94,86.46 219.34,86.12 219.73,85.77 220.13,85.41 220.53,85.04 220.93,84.66 221.32,84.27 221.72,83.87 222.12,83.46 222.51,83.04 222.91,82.6 223.31,82.16 223.7,81.71 224.1,81.25 224.5,80.79 224.89,80.32 225.29,79.86 225.69,79.4 226.08,78.94 226.48,78.49 226.88,78.04 227.28,77.61 227.67,77.18 228.07,76.77 228.47,76.38 228.86,76 229.26,75.63 229.66,75.28 230.05,74.95 230.45,74.64 230.85,74.34 231.24,74.06 231.64,73.8 232.04,73.55 232.43,73.31 232.83,73.1 233.23,72.89 233.63,72.7 234.02,72.52 234.42,72.35 234.82,72.19 235.21,72.04 235.61,71.89 236.01,71.74 236.4,71.6 236.8,71.46 237.2,71.31 237.59,71.16 237.99,71.01 238.39,70.85 238.78,70.67 239.18,70.49 239.58,70.29 239.98,70.07 240.37,69.83 240.77,69.57 241.17,69.29 241.56,68.99 241.96,68.67 242.36,68.31 242.75,67.93 243.15,67.53 243.55,67.11 243.94,66.66 244.34,66.19 244.74,65.7 245.13,65.19 245.53,64.66 245.93,64.12 246.33,63.58 246.72,63.02 247.12,62.47 247.52,61.91 247.91,61.36 248.31,60.82 248.71,60.28 249.1,59.76 249.5,59.26 249.9,58.78 250.29,58.33 250.69,57.89 251.09,57.48 251.48,57.1 251.88,56.74 252.28,56.41 252.68,56.11 253.07,55.84 253.47,55.59 253.87,55.37 254.26,55.16 254.66,54.99 255.06,54.83 255.45,54.7 255.85,54.58 256.25,54.48 256.64,54.39 257.04,54.31 257.44,54.25 257.83,54.19 258.23,54.15 258.63,54.11 259.03,54.08 259.42,54.06 259.82,54.04 260.22,54.02 260.61,54.01 261.01,54 261.41,53.99 261.8,53.98" stroke-dasharray="none" stroke="rgb(31,120,180)" stroke-width="0.75" opacity="1" stroke-opacity="1" fill="none"/>
          </g>
          <g id="Fig:densplot_01.xyplot.lines.group.7.panel.1.1.1">
            <polyline id="Fig:densplot_01.xyplot.lines.group.7.panel.1.1.1.1" points="61.34,53.99 61.73,54 62.12,54.02 62.51,54.04 62.89,54.06 63.28,54.1 63.67,54.14 64.06,54.2 64.44,54.26 64.83,54.35 65.22,54.46 65.6,54.59 65.99,54.75 66.38,54.94 66.77,55.17 67.15,55.44 67.54,55.77 67.93,56.15 68.32,56.58 68.7,57.08 69.09,57.65 69.48,58.29 69.87,59.02 70.25,59.83 70.64,60.72 71.03,61.7 71.42,62.77 71.8,63.91 72.19,65.14 72.58,66.46 72.97,67.85 73.35,69.31 73.74,70.84 74.13,72.41 74.51,74.03 74.9,75.69 75.29,77.37 75.68,79.08 76.06,80.79 76.45,82.49 76.84,84.18 77.23,85.86 77.61,87.5 78,89.12 78.39,90.69 78.78,92.21 79.16,93.69 79.55,95.12 79.94,96.51 80.33,97.85 80.71,99.14 81.1,100.37 81.49,101.57 81.88,102.72 82.26,103.84 82.65,104.93 83.04,105.99 83.42,107.02 83.81,108.03 84.2,109.01 84.59,109.98 84.97,110.93 85.36,111.87 85.75,112.79 86.14,113.7 86.52,114.6 86.91,115.49 87.3,116.36 87.69,117.22 88.07,118.07 88.46,118.91 88.85,119.74 89.24,120.56 89.62,121.36 90.01,122.15 90.4,122.94 90.79,123.71 91.17,124.48 91.56,125.23 91.95,125.98 92.33,126.71 92.72,127.44 93.11,128.16 93.5,128.87 93.88,129.57 94.27,130.25 94.66,130.93 95.05,131.58 95.43,132.22 95.82,132.84 96.21,133.43 96.6,134.01 96.98,134.55 97.37,135.07 97.76,135.56 98.15,136.03 98.53,136.46 98.92,136.87 99.31,137.26 99.7,137.62 100.08,137.97 100.47,138.3 100.86,138.62 101.25,138.94 101.63,139.26 102.02,139.6 102.41,139.95 102.79,140.33 103.18,140.73 103.57,141.17 103.96,141.65 104.34,142.17 104.73,142.74 105.12,143.34 105.51,143.99 105.89,144.69 106.28,145.43 106.67,146.2 107.06,147.01 107.44,147.83 107.83,148.68 108.22,149.54 108.61,150.41 108.99,151.28 109.38,152.15 109.77,153.01 110.16,153.86 110.54,154.7 110.93,155.52 111.32,156.33 111.7,157.13 112.09,157.91 112.48,158.69 112.87,159.45 113.25,160.22 113.64,160.99 114.03,161.76 114.42,162.53 114.8,163.32 115.19,164.13 115.58,164.95 115.97,165.79 116.35,166.64 116.74,167.52 117.13,168.42 117.52,169.34 117.9,170.28 118.29,171.23 118.68,172.2 119.07,173.18 119.45,174.17 119.84,175.17 120.23,176.18 120.61,177.19 121,178.19 121.39,179.2 121.78,180.2 122.16,181.19 122.55,182.17 122.94,183.14 123.33,184.1 123.71,185.04 124.1,185.97 124.49,186.88 124.88,187.77 125.26,188.64 125.65,189.49 126.04,190.31 126.43,191.11 126.81,191.89 127.2,192.64 127.59,193.35 127.98,194.04 128.36,194.71 128.75,195.34 129.14,195.95 129.52,196.53 129.91,197.08 130.3,197.6 130.69,198.11 131.07,198.58 131.46,199.05 131.85,199.49 132.24,199.92 132.62,200.34 133.01,200.75 133.4,201.15 133.79,201.56 134.17,201.96 134.56,202.37 134.95,202.78 135.34,203.2 135.72,203.63 136.11,204.07 136.5,204.52 136.89,204.98 137.27,205.44 137.66,205.92 138.05,206.4 138.43,206.89 138.82,207.38 139.21,207.87 139.6,208.37 139.98,208.87 140.37,209.37 140.76,209.86 141.15,210.36 141.53,210.85 141.92,211.35 142.31,211.84 142.7,212.33 143.08,212.81 143.47,213.3 143.86,213.78 144.25,214.25 144.63,214.72 145.02,215.18 145.41,215.63 145.8,216.07 146.18,216.49 146.57,216.89 146.96,217.26 147.34,217.6 147.73,217.91 148.12,218.19 148.51,218.42 148.89,218.61 149.28,218.75 149.67,218.84 150.06,218.87 150.44,218.84 150.83,218.76 151.22,218.62 151.61,218.42 151.99,218.17 152.38,217.86 152.77,217.5 153.16,217.09 153.54,216.63 153.93,216.14 154.32,215.61 154.71,215.05 155.09,214.46 155.48,213.84 155.87,213.21 156.25,212.57 156.64,211.93 157.03,211.27 157.42,210.62 157.8,209.97 158.19,209.33 158.58,208.69 158.97,208.07 159.35,207.45 159.74,206.85 160.13,206.25 160.52,205.66 160.9,205.07 161.29,204.49 161.68,203.91 162.07,203.33 162.45,202.75 162.84,202.16 163.23,201.56 163.62,200.94 164,200.3 164.39,199.65 164.78,198.97 165.16,198.27 165.55,197.54 165.94,196.79 166.33,196 166.71,195.18 167.1,194.33 167.49,193.45 167.88,192.54 168.26,191.6 168.65,190.62 169.04,189.61 169.43,188.56 169.81,187.49 170.2,186.38 170.59,185.25 170.98,184.08 171.36,182.89 171.75,181.67 172.14,180.42 172.53,179.15 172.91,177.85 173.3,176.54 173.69,175.21 174.07,173.86 174.46,172.5 174.85,171.12 175.24,169.73 175.62,168.34 176.01,166.94 176.4,165.53 176.79,164.12 177.17,162.71 177.56,161.3 177.95,159.89 178.34,158.48 178.72,157.08 179.11,155.68 179.5,154.28 179.89,152.9 180.27,151.52 180.66,150.16 181.05,148.8 181.44,147.45 181.82,146.12 182.21,144.79 182.6,143.48 182.99,142.18 183.37,140.9 183.76,139.63 184.15,138.37 184.53,137.12 184.92,135.88 185.31,134.65 185.7,133.43 186.08,132.23 186.47,131.03 186.86,129.84 187.25,128.65 187.63,127.48 188.02,126.31 188.41,125.14 188.8,123.98 189.18,122.83 189.57,121.68 189.96,120.53 190.35,119.38 190.73,118.23 191.12,117.09 191.51,115.95 191.9,114.8 192.28,113.66 192.67,112.52 193.06,111.37 193.44,110.23 193.83,109.09 194.22,107.96 194.61,106.83 194.99,105.71 195.38,104.6 195.77,103.49 196.16,102.41 196.54,101.34 196.93,100.28 197.32,99.25 197.71,98.25 198.09,97.26 198.48,96.31 198.87,95.38 199.26,94.48 199.64,93.62 200.03,92.78 200.42,91.97 200.81,91.19 201.19,90.44 201.58,89.71 201.97,89.01 202.35,88.34 202.74,87.68 203.13,87.05 203.52,86.43 203.9,85.82 204.29,85.23 204.68,84.65 205.07,84.08 205.45,83.52 205.84,82.97 206.23,82.42 206.62,81.88 207,81.35 207.39,80.82 207.78,80.29 208.17,79.77 208.55,79.25 208.94,78.73 209.33,78.21 209.72,77.7 210.1,77.19 210.49,76.68 210.88,76.17 211.26,75.67 211.65,75.17 212.04,74.67 212.43,74.17 212.81,73.68 213.2,73.19 213.59,72.7 213.98,72.23 214.36,71.76 214.75,71.29 215.14,70.84 215.53,70.4 215.91,69.97 216.3,69.55 216.69,69.15 217.08,68.76 217.46,68.38 217.85,68.02 218.24,67.68 218.63,67.36 219.01,67.05 219.4,66.76 219.79,66.48 220.17,66.22 220.56,65.97 220.95,65.74 221.34,65.52 221.72,65.31 222.11,65.1 222.5,64.91 222.89,64.73 223.27,64.55 223.66,64.37 224.05,64.2 224.44,64.04 224.82,63.87 225.21,63.71 225.6,63.55 225.99,63.4 226.37,63.24 226.76,63.08 227.15,62.93 227.54,62.78 227.92,62.62 228.31,62.47 228.7,62.32 229.08,62.18 229.47,62.03 229.86,61.89 230.25,61.76 230.63,61.63 231.02,61.5 231.41,61.38 231.8,61.27 232.18,61.17 232.57,61.07 232.96,60.98 233.35,60.89 233.73,60.81 234.12,60.74 234.51,60.67 234.9,60.6 235.28,60.54 235.67,60.48 236.06,60.42 236.45,60.36 236.83,60.29 237.22,60.23 237.61,60.16 237.99,60.09 238.38,60.02 238.77,59.94 239.16,59.85 239.54,59.76 239.93,59.66 240.32,59.55 240.71,59.43 241.09,59.31 241.48,59.18 241.87,59.04 242.26,58.9 242.64,58.74 243.03,58.58 243.42,58.41 243.81,58.23 244.19,58.05 244.58,57.86 244.97,57.67 245.36,57.47 245.74,57.27 246.13,57.06 246.52,56.86 246.9,56.65 247.29,56.45 247.68,56.24 248.07,56.05 248.45,55.86 248.84,55.67 249.23,55.5 249.62,55.33 250,55.18 250.39,55.03 250.78,54.89 251.17,54.77 251.55,54.66 251.94,54.56 252.33,54.47 252.72,54.39 253.1,54.32 253.49,54.26 253.88,54.2 254.27,54.16 254.65,54.12 255.04,54.09 255.43,54.06 255.81,54.04 256.2,54.02 256.59,54.01 256.98,54 257.36,53.99 257.75,53.98 258.14,53.98 258.53,53.97 258.91,53.97 259.3,53.97" stroke-dasharray="none" stroke="rgb(31,120,180)" stroke-width="0.75" opacity="1" stroke-opacity="1" fill="none"/>
          </g>
          <g id="Fig:densplot_01.xyplot.lines.group.8.panel.1.1.1">
            <polyline id="Fig:densplot_01.xyplot.lines.group.8.panel.1.1.1.1" points="61.47,53.99 61.86,54.01 62.24,54.03 62.63,54.05 63.02,54.08 63.41,54.12 63.79,54.17 64.18,54.23 64.57,54.31 64.95,54.41 65.34,54.53 65.73,54.67 66.12,54.85 66.5,55.06 66.89,55.32 67.28,55.62 67.67,55.97 68.05,56.38 68.44,56.85 68.83,57.38 69.21,57.98 69.6,58.67 69.99,59.44 70.38,60.28 70.76,61.2 71.15,62.2 71.54,63.29 71.92,64.45 72.31,65.7 72.7,67.02 73.09,68.4 73.47,69.85 73.86,71.35 74.25,72.9 74.64,74.49 75.02,76.12 75.41,77.77 75.8,79.44 76.18,81.11 76.57,82.79 76.96,84.47 77.35,86.13 77.73,87.77 78.12,89.38 78.51,90.97 78.9,92.52 79.28,94.03 79.67,95.49 80.06,96.92 80.44,98.29 80.83,99.61 81.22,100.88 81.61,102.1 81.99,103.27 82.38,104.39 82.77,105.46 83.15,106.48 83.54,107.45 83.93,108.38 84.32,109.27 84.7,110.12 85.09,110.94 85.48,111.72 85.87,112.48 86.25,113.2 86.64,113.9 87.03,114.58 87.41,115.24 87.8,115.89 88.19,116.53 88.58,117.15 88.96,117.77 89.35,118.39 89.74,119 90.13,119.62 90.51,120.23 90.9,120.85 91.29,121.48 91.67,122.11 92.06,122.75 92.45,123.4 92.84,124.06 93.22,124.72 93.61,125.4 94,126.08 94.38,126.78 94.77,127.48 95.16,128.19 95.55,128.9 95.93,129.62 96.32,130.35 96.71,131.07 97.1,131.81 97.48,132.54 97.87,133.28 98.26,134.02 98.64,134.76 99.03,135.5 99.42,136.24 99.81,136.97 100.19,137.7 100.58,138.43 100.97,139.15 101.36,139.86 101.74,140.57 102.13,141.26 102.52,141.93 102.9,142.59 103.29,143.24 103.68,143.86 104.07,144.47 104.45,145.06 104.84,145.63 105.23,146.19 105.61,146.73 106,147.26 106.39,147.78 106.78,148.3 107.16,148.81 107.55,149.33 107.94,149.86 108.33,150.4 108.71,150.95 109.1,151.53 109.49,152.12 109.87,152.74 110.26,153.39 110.65,154.07 111.04,154.78 111.42,155.51 111.81,156.27 112.2,157.06 112.58,157.86 112.97,158.69 113.36,159.53 113.75,160.4 114.13,161.27 114.52,162.15 114.91,163.04 115.3,163.94 115.68,164.84 116.07,165.74 116.46,166.65 116.84,167.56 117.23,168.47 117.62,169.38 118.01,170.29 118.39,171.19 118.78,172.1 119.17,172.99 119.56,173.87 119.94,174.75 120.33,175.61 120.72,176.45 121.1,177.28 121.49,178.09 121.88,178.88 122.27,179.64 122.65,180.39 123.04,181.11 123.43,181.82 123.81,182.51 124.2,183.2 124.59,183.87 124.98,184.54 125.36,185.21 125.75,185.89 126.14,186.58 126.53,187.3 126.91,188.03 127.3,188.79 127.69,189.58 128.07,190.41 128.46,191.27 128.85,192.16 129.24,193.08 129.62,194.04 130.01,195.01 130.4,196.01 130.79,197.02 131.17,198.03 131.56,199.04 131.95,200.04 132.33,201.02 132.72,201.97 133.11,202.89 133.5,203.76 133.88,204.59 134.27,205.37 134.66,206.1 135.04,206.77 135.43,207.39 135.82,207.94 136.21,208.44 136.59,208.9 136.98,209.32 137.37,209.7 137.76,210.04 138.14,210.37 138.53,210.67 138.92,210.95 139.3,211.24 139.69,211.52 140.08,211.81 140.47,212.1 140.85,212.4 141.24,212.72 141.63,213.06 142.02,213.4 142.4,213.77 142.79,214.14 143.18,214.53 143.56,214.93 143.95,215.33 144.34,215.73 144.73,216.13 145.11,216.51 145.5,216.89 145.89,217.24 146.27,217.57 146.66,217.87 147.05,218.14 147.44,218.37 147.82,218.56 148.21,218.71 148.6,218.82 148.99,218.89 149.37,218.93 149.76,218.92 150.15,218.87 150.53,218.79 150.92,218.69 151.31,218.56 151.7,218.41 152.08,218.24 152.47,218.05 152.86,217.85 153.24,217.64 153.63,217.42 154.02,217.19 154.41,216.95 154.79,216.71 155.18,216.45 155.57,216.19 155.96,215.91 156.34,215.62 156.73,215.31 157.12,214.98 157.5,214.64 157.89,214.26 158.28,213.86 158.67,213.43 159.05,212.97 159.44,212.47 159.83,211.95 160.22,211.39 160.6,210.79 160.99,210.15 161.38,209.49 161.76,208.79 162.15,208.06 162.54,207.29 162.93,206.5 163.31,205.68 163.7,204.83 164.09,203.95 164.47,203.04 164.86,202.12 165.25,201.17 165.64,200.2 166.02,199.2 166.41,198.18 166.8,197.13 167.19,196.06 167.57,194.96 167.96,193.84 168.35,192.69 168.73,191.52 169.12,190.32 169.51,189.1 169.9,187.85 170.28,186.58 170.67,185.29 171.06,183.98 171.45,182.66 171.83,181.32 172.22,179.97 172.61,178.61 172.99,177.25 173.38,175.88 173.77,174.51 174.16,173.14 174.54,171.78 174.93,170.42 175.32,169.07 175.7,167.72 176.09,166.39 176.48,165.07 176.87,163.77 177.25,162.48 177.64,161.21 178.03,159.95 178.42,158.71 178.8,157.49 179.19,156.29 179.58,155.1 179.96,153.92 180.35,152.76 180.74,151.6 181.13,150.45 181.51,149.3 181.9,148.14 182.29,146.98 182.68,145.81 183.06,144.62 183.45,143.41 183.84,142.18 184.22,140.93 184.61,139.64 185,138.34 185.39,137 185.77,135.63 186.16,134.24 186.55,132.83 186.93,131.4 187.32,129.96 187.71,128.51 188.1,127.05 188.48,125.59 188.87,124.15 189.26,122.71 189.65,121.29 190.03,119.89 190.42,118.52 190.81,117.17 191.19,115.86 191.58,114.58 191.97,113.33 192.36,112.11 192.74,110.93 193.13,109.77 193.52,108.63 193.9,107.52 194.29,106.44 194.68,105.37 195.07,104.31 195.45,103.26 195.84,102.22 196.23,101.19 196.62,100.17 197,99.15 197.39,98.13 197.78,97.12 198.16,96.11 198.55,95.11 198.94,94.12 199.33,93.15 199.71,92.19 200.1,91.25 200.49,90.33 200.88,89.43 201.26,88.57 201.65,87.73 202.04,86.92 202.42,86.14 202.81,85.4 203.2,84.69 203.59,84 203.97,83.35 204.36,82.72 204.75,82.12 205.13,81.54 205.52,80.98 205.91,80.43 206.3,79.9 206.68,79.38 207.07,78.87 207.46,78.36 207.85,77.86 208.23,77.37 208.62,76.88 209.01,76.39 209.39,75.91 209.78,75.43 210.17,74.96 210.56,74.5 210.94,74.04 211.33,73.59 211.72,73.15 212.11,72.72 212.49,72.29 212.88,71.88 213.27,71.47 213.65,71.08 214.04,70.69 214.43,70.31 214.82,69.94 215.2,69.57 215.59,69.21 215.98,68.87 216.36,68.52 216.75,68.19 217.14,67.86 217.53,67.54 217.91,67.23 218.3,66.92 218.69,66.63 219.08,66.34 219.46,66.06 219.85,65.79 220.24,65.53 220.62,65.28 221.01,65.04 221.4,64.8 221.79,64.58 222.17,64.37 222.56,64.17 222.95,63.98 223.34,63.79 223.72,63.61 224.11,63.45 224.5,63.29 224.88,63.14 225.27,63 225.66,62.86 226.05,62.73 226.43,62.61 226.82,62.5 227.21,62.39 227.59,62.29 227.98,62.19 228.37,62.1 228.76,62.01 229.14,61.93 229.53,61.84 229.92,61.76 230.31,61.69 230.69,61.61 231.08,61.54 231.47,61.46 231.85,61.39 232.24,61.31 232.63,61.23 233.02,61.15 233.4,61.07 233.79,60.98 234.18,60.89 234.56,60.79 234.95,60.7 235.34,60.6 235.73,60.49 236.11,60.39 236.5,60.28 236.89,60.16 237.28,60.05 237.66,59.93 238.05,59.82 238.44,59.7 238.82,59.58 239.21,59.46 239.6,59.34 239.99,59.22 240.37,59.09 240.76,58.97 241.15,58.84 241.54,58.72 241.92,58.59 242.31,58.45 242.7,58.32 243.08,58.18 243.47,58.03 243.86,57.88 244.25,57.72 244.63,57.56 245.02,57.39 245.41,57.22 245.79,57.04 246.18,56.86 246.57,56.68 246.96,56.49 247.34,56.31 247.73,56.13 248.12,55.95 248.51,55.78 248.89,55.61 249.28,55.45 249.67,55.29 250.05,55.14 250.44,55.01 250.83,54.88 251.22,54.76 251.6,54.65 251.99,54.56 252.38,54.47 252.77,54.39 253.15,54.32 253.54,54.26 253.93,54.21 254.31,54.16 254.7,54.13 255.09,54.09 255.48,54.07 255.86,54.05 256.25,54.03 256.64,54.01 257.02,54 257.41,53.99 257.8,53.98 258.19,53.98 258.57,53.97 258.96,53.97 259.35,53.97" stroke-dasharray="none" stroke="rgb(31,120,180)" stroke-width="0.75" opacity="1" stroke-opacity="1" fill="none"/>
          </g>
        </g>
        <g id="Fig:densplot_01.panel.1.1.off.vp.2">
          <g id="Fig:densplot_01.border.panel.1.1.1">
            <rect id="Fig:densplot_01.border.panel.1.1.1.1" x="44.8" y="42.19" width="231.2" height="191.81" transform="" stroke="rgb(0,0,0)" stroke-dasharray="none" stroke-width="0.75" opacity="1" fill="none" stroke-opacity="1" fill-opacity="0"/>
          </g>
        </g>
        <g id="Fig:densplot_01..1"/>
      </g>
    </g>
  </g>
</svg>