<?xml version="1.0" encoding="CP936"?>
<svg xmlns="http://www.w3.org/2000/svg" xmlns:xlink="http://www.w3.org/1999/xlink" width="288px" height="252px" viewBox="0 0 288 252" version="1.1" id="Fig:dens">
  <metadata xmlns:gridsvg="http://www.stat.auckland.ac.nz/~paul/R/gridSVG/">
    <gridsvg:generator name="gridSVG" version="1.6-0" time="2019-02-18 15:08:57"/>
    <gridsvg:argument name="name" value="quality_assesment/dens.svg"/>
    <gridsvg:argument name="exportCoords" value="none"/>
    <gridsvg:argument name="exportMappings" value="none"/>
    <gridsvg:argument name="exportJS" value="none"/>
    <gridsvg:argument name="res" value="72"/>
    <gridsvg:argument name="prefix" value="Fig:dens"/>
    <gridsvg:argument name="addClasses" value="FALSE"/>
    <gridsvg:argument name="indent" value="TRUE"/>
    <gridsvg:argument name="htmlWrapper" value="FALSE"/>
    <gridsvg:argument name="usePaths" value="none"/>
    <gridsvg:argument name="uniqueNames" value="TRUE"/>
    <gridsvg:separator name="id.sep" value="."/>
    <gridsvg:separator name="gPath.sep" value="::"/>
    <gridsvg:separator name="vpPath.sep" value="::"/>
  </metadata>
  <g transform="translate(0, 252) scale(1, -1)">
    <g id="Fig:densgridSVG" fill="none" stroke="rgb(0,0,0)" stroke-dasharray="none" stroke-width="0.75" font-size="12" font-family="Helvetica, Arial, FreeSans, Liberation Sans, Nimbus Sans L, sans-serif" opacity="1" stroke-linecap="round" stroke-linejoin="round" stroke-miterlimit="10" stroke-opacity="1" fill-opacity="0" font-weight="normal" font-style="normal">
      <g id="Fig:densplot_01.background.1">
        <rect id="Fig:densplot_01.background.1.1" x="0" y="0" width="288" height="252" transform="" fill="none" stroke="none" stroke-opacity="0" fill-opacity="0"/>
      </g>
      <g id="Fig:densplot_01.toplevel.vp.1" font-size="12">
        <g id="Fig:densplot_01.ylab.vp.1">
          <g id="Fig:densplot_01.ylab.1">
            <g id="Fig:densplot_01.ylab.1.1" transform="translate(10.31, 138.09)" stroke-width="0.1">
              <g id="Fig:densplot_01.ylab.1.1.scale" transform="scale(1, -1)">
                <text x="0" y="0" id="Fig:densplot_01.ylab.1.1.text" transform="rotate(-90)" text-anchor="middle" opacity="1" stroke="rgb(0,0,0)" fill="rgb(0,0,0)" stroke-opacity="1" fill-opacity="1" font-size="12" font-weight="normal" font-style="normal">
                  <tspan id="Fig:densplot_01.ylab.1.1.tspan.1" dy="4.31" x="0">Density</tspan>
                </text>
              </g>
            </g>
          </g>
        </g>
        <g id="Fig:densplot_01.figure.vp.1"/>
        <defs>
          <clipPath id="Fig:densplot_01.panel.1.1.vp.1.clipPath">
            <rect x="44.8" y="42.19" width="231.2" height="191.81" fill="none" stroke="none"/>
          </clipPath>
        </defs>
        <g id="Fig:densplot_01.panel.1.1.vp.1" clip-path="url(#Fig:densplot_01.panel.1.1.vp.1.clipPath)"/>
        <g id="Fig:densplot_01.strip.1.1.off.vp.1"/>
        <g id="Fig:densplot_01.strip.left.1.1.off.vp.1">
          <g id="Fig:densplot_01.ticks.left.panel.1.1.1">
            <polyline id="Fig:densplot_01.ticks.left.panel.1.1.1.1" points="44.8,53.97 39.13,53.97" stroke="rgb(0,0,0)" opacity="1" stroke-dasharray="none" stroke-width="0.75" stroke-opacity="1" fill="none"/>
            <polyline id="Fig:densplot_01.ticks.left.panel.1.1.1.2" points="44.8,117.44 39.13,117.44" stroke="rgb(0,0,0)" opacity="1" stroke-dasharray="none" stroke-width="0.75" stroke-opacity="1" fill="none"/>
            <polyline id="Fig:densplot_01.ticks.left.panel.1.1.1.3" points="44.8,180.92 39.13,180.92" stroke="rgb(0,0,0)" opacity="1" stroke-dasharray="none" stroke-width="0.75" stroke-opacity="1" fill="none"/>
          </g>
          <g id="Fig:densplot_01.ticklabels.left.panel.1.1.1">
            <g id="Fig:densplot_01.ticklabels.left.panel.1.1.1.1" transform="translate(33.47, 53.97)" stroke-width="0.1">
              <g id="Fig:densplot_01.ticklabels.left.panel.1.1.1.1.scale" transform="scale(1, -1)">
                <text x="0" y="0" id="Fig:densplot_01.ticklabels.left.panel.1.1.1.1.text" transform="rotate(-90)" text-anchor="middle" stroke="rgb(0,0,0)" opacity="1" fill="rgb(0,0,0)" stroke-opacity="1" fill-opacity="1" font-size="9.6" font-weight="normal" font-style="normal">
                  <tspan id="Fig:densplot_01.ticklabels.left.panel.1.1.1.1.tspan.1" dy="0" x="0">0.000</tspan>
                </text>
              </g>
            </g>
            <g id="Fig:densplot_01.ticklabels.left.panel.1.1.1.2" transform="translate(33.47, 117.44)" stroke-width="0.1">
              <g id="Fig:densplot_01.ticklabels.left.panel.1.1.1.2.scale" transform="scale(1, -1)">
                <text x="0" y="0" id="Fig:densplot_01.ticklabels.left.panel.1.1.1.2.text" transform="rotate(-90)" text-anchor="middle" stroke="rgb(0,0,0)" opacity="1" fill="rgb(0,0,0)" stroke-opacity="1" fill-opacity="1" font-size="9.6" font-weight="normal" font-style="normal">
                  <tspan id="Fig:densplot_01.ticklabels.left.panel.1.1.1.2.tspan.1" dy="0" x="0">0.005</tspan>
                </text>
              </g>
            </g>
            <g id="Fig:densplot_01.ticklabels.left.panel.1.1.1.3" transform="translate(33.47, 180.92)" stroke-width="0.1">
              <g id="Fig:densplot_01.ticklabels.left.panel.1.1.1.3.scale" transform="scale(1, -1)">
                <text x="0" y="0" id="Fig:densplot_01.ticklabels.left.panel.1.1.1.3.text" transform="rotate(-90)" text-anchor="middle" stroke="rgb(0,0,0)" opacity="1" fill="rgb(0,0,0)" stroke-opacity="1" fill-opacity="1" font-size="9.6" font-weight="normal" font-style="normal">
                  <tspan id="Fig:densplot_01.ticklabels.left.panel.1.1.1.3.tspan.1" dy="0" x="0">0.010</tspan>
                </text>
              </g>
            </g>
          </g>
        </g>
        <g id="Fig:densplot_01.panel.1.1.off.vp.1">
          <g id="Fig:densplot_01.ticks.bottom.panel.1.1.1">
            <polyline id="Fig:densplot_01.ticks.bottom.panel.1.1.1.1" points="57.97,42.19 57.97,36.52" stroke="rgb(0,0,0)" opacity="1" stroke-dasharray="none" stroke-width="0.75" stroke-opacity="1" fill="none"/>
            <polyline id="Fig:densplot_01.ticks.bottom.panel.1.1.1.2" points="104.79,42.19 104.79,36.52" stroke="rgb(0,0,0)" opacity="1" stroke-dasharray="none" stroke-width="0.75" stroke-opacity="1" fill="none"/>
            <polyline id="Fig:densplot_01.ticks.bottom.panel.1.1.1.3" points="151.61,42.19 151.61,36.52" stroke="rgb(0,0,0)" opacity="1" stroke-dasharray="none" stroke-width="0.75" stroke-opacity="1" fill="none"/>
            <polyline id="Fig:densplot_01.ticks.bottom.panel.1.1.1.4" points="198.43,42.19 198.43,36.52" stroke="rgb(0,0,0)" opacity="1" stroke-dasharray="none" stroke-width="0.75" stroke-opacity="1" fill="none"/>
            <polyline id="Fig:densplot_01.ticks.bottom.panel.1.1.1.5" points="245.26,42.19 245.26,36.52" stroke="rgb(0,0,0)" opacity="1" stroke-dasharray="none" stroke-width="0.75" stroke-opacity="1" fill="none"/>
          </g>
          <g id="Fig:densplot_01.ticklabels.bottom.panel.1.1.1">
            <g id="Fig:densplot_01.ticklabels.bottom.panel.1.1.1.1" transform="translate(57.97, 30.85)" stroke-width="0.1">
              <g id="Fig:densplot_01.ticklabels.bottom.panel.1.1.1.1.scale" transform="scale(1, -1)">
                <text x="0" y="0" id="Fig:densplot_01.ticklabels.bottom.panel.1.1.1.1.text" text-anchor="middle" stroke="rgb(0,0,0)" opacity="1" fill="rgb(0,0,0)" stroke-opacity="1" fill-opacity="1" font-size="9.6" font-weight="normal" font-style="normal">
                  <tspan id="Fig:densplot_01.ticklabels.bottom.panel.1.1.1.1.tspan.1" dy="7.18" x="0">0</tspan>
                </text>
              </g>
            </g>
            <g id="Fig:densplot_01.ticklabels.bottom.panel.1.1.1.2" transform="translate(104.79, 30.85)" stroke-width="0.1">
              <g id="Fig:densplot_01.ticklabels.bottom.panel.1.1.1.2.scale" transform="scale(1, -1)">
                <text x="0" y="0" id="Fig:densplot_01.ticklabels.bottom.panel.1.1.1.2.text" text-anchor="middle" stroke="rgb(0,0,0)" opacity="1" fill="rgb(0,0,0)" stroke-opacity="1" fill-opacity="1" font-size="9.6" font-weight="normal" font-style="normal">
                  <tspan id="Fig:densplot_01.ticklabels.bottom.panel.1.1.1.2.tspan.1" dy="7.18" x="0">500</tspan>
                </text>
              </g>
            </g>
            <g id="Fig:densplot_01.ticklabels.bottom.panel.1.1.1.3" transform="translate(151.61, 30.85)" stroke-width="0.1">
              <g id="Fig:densplot_01.ticklabels.bottom.panel.1.1.1.3.scale" transform="scale(1, -1)">
                <text x="0" y="0" id="Fig:densplot_01.ticklabels.bottom.panel.1.1.1.3.text" text-anchor="middle" stroke="rgb(0,0,0)" opacity="1" fill="rgb(0,0,0)" stroke-opacity="1" fill-opacity="1" font-size="9.6" font-weight="normal" font-style="normal">
                  <tspan id="Fig:densplot_01.ticklabels.bottom.panel.1.1.1.3.tspan.1" dy="7.18" x="0">1000</tspan>
                </text>
              </g>
            </g>
            <g id="Fig:densplot_01.ticklabels.bottom.panel.1.1.1.4" transform="translate(198.43, 30.85)" stroke-width="0.1">
              <g id="Fig:densplot_01.ticklabels.bottom.panel.1.1.1.4.scale" transform="scale(1, -1)">
                <text x="0" y="0" id="Fig:densplot_01.ticklabels.bottom.panel.1.1.1.4.text" text-anchor="middle" stroke="rgb(0,0,0)" opacity="1" fill="rgb(0,0,0)" stroke-opacity="1" fill-opacity="1" font-size="9.6" font-weight="normal" font-style="normal">
                  <tspan id="Fig:densplot_01.ticklabels.bottom.panel.1.1.1.4.tspan.1" dy="7.18" x="0">1500</tspan>
                </text>
              </g>
            </g>
            <g id="Fig:densplot_01.ticklabels.bottom.panel.1.1.1.5" transform="translate(245.26, 30.85)" stroke-width="0.1">
              <g id="Fig:densplot_01.ticklabels.bottom.panel.1.1.1.5.scale" transform="scale(1, -1)">
                <text x="0" y="0" id="Fig:densplot_01.ticklabels.bottom.panel.1.1.1.5.text" text-anchor="middle" stroke="rgb(0,0,0)" opacity="1" fill="rgb(0,0,0)" stroke-opacity="1" fill-opacity="1" font-size="9.6" font-weight="normal" font-style="normal">
                  <tspan id="Fig:densplot_01.ticklabels.bottom.panel.1.1.1.5.tspan.1" dy="7.18" x="0">2000</tspan>
                </text>
              </g>
            </g>
          </g>
        </g>
        <defs>
          <clipPath id="Fig:densplot_01.panel.1.1.vp.2.clipPath">
            <rect x="44.8" y="42.19" width="231.2" height="191.81" fill="none" stroke="none"/>
          </clipPath>
        </defs>
        <g id="Fig:densplot_01.panel.1.1.vp.2" clip-path="url(#Fig:densplot_01.panel.1.1.vp.2.clipPath)">
          <g id="Fig:densplot_01.xyplot.lines.group.1.panel.1.1.1">
            <polyline id="Fig:densplot_01.xyplot.lines.group.1.panel.1.1.1.1" points="59,53.97 59.4,53.98 59.79,54.05 60.19,54.43 60.58,55.87 60.98,60.07 61.37,69.71 61.77,87.17 62.17,112.38 62.56,141.7 62.96,169.33 63.35,189.98 63.75,200.46 64.14,200.21 64.54,191.26 64.93,177.55 65.33,163.2 65.73,150.79 66.12,140.94 66.52,133.05 66.91,126.37 67.31,120.6 67.7,115.7 68.1,111.48 68.5,107.64 68.89,104 69.29,100.51 69.68,97.28 70.08,94.46 70.47,92.02 70.87,89.78 71.26,87.65 71.66,85.61 72.06,83.68 72.45,81.94 72.85,80.44 73.24,79.07 73.64,77.76 74.03,76.51 74.43,75.36 74.83,74.33 75.22,73.37 75.62,72.43 76.01,71.51 76.41,70.7 76.8,70 77.2,69.35 77.6,68.7 77.99,68.06 78.39,67.47 78.78,66.95 79.18,66.49 79.57,66.06 79.97,65.63 80.36,65.22 80.76,64.86 81.16,64.53 81.55,64.18 81.95,63.81 82.34,63.45 82.74,63.12 83.13,62.84 83.53,62.64 83.93,62.47 84.32,62.27 84.72,62 85.11,61.71 85.51,61.46 85.9,61.26 86.3,61.11 86.69,60.95 87.09,60.74 87.49,60.48 87.88,60.25 88.28,60.08 88.67,59.94 89.07,59.79 89.46,59.63 89.86,59.47 90.26,59.34 90.65,59.24 91.05,59.13 91.44,59.02 91.84,58.91 92.23,58.81 92.63,58.72 93.03,58.61 93.42,58.52 93.82,58.44 94.21,58.38 94.61,58.31 95,58.21 95.4,58.11 95.79,58.04 96.19,57.97 96.59,57.9 96.98,57.81 97.38,57.72 97.77,57.63 98.17,57.56 98.56,57.5 98.96,57.44 99.36,57.39 99.75,57.35 100.15,57.33 100.54,57.32 100.94,57.29 101.33,57.22 101.73,57.12 102.12,57.02 102.52,56.94 102.92,56.86 103.31,56.79 103.71,56.74 104.1,56.76 104.5,56.8 104.89,56.78 105.29,56.7 105.69,56.61 106.08,56.55 106.48,56.49 106.87,56.42 107.27,56.38 107.66,56.35 108.06,56.33 108.45,56.3 108.85,56.26 109.25,56.24 109.64,56.22 110.04,56.19 110.43,56.14 110.83,56.08 111.22,56.05 111.62,56.04 112.02,56.03 112.41,56.01 112.81,55.98 113.2,55.97 113.6,55.97 113.99,55.96 114.39,55.94 114.79,55.9 115.18,55.86 115.58,55.82 115.97,55.79 116.37,55.77 116.76,55.74 117.16,55.71 117.55,55.66 117.95,55.62 118.35,55.6 118.74,55.6 119.14,55.59 119.53,55.56 119.93,55.52 120.32,55.48 120.72,55.46 121.12,55.45 121.51,55.45 121.91,55.43 122.3,55.39 122.7,55.38 123.09,55.39 123.49,55.41 123.88,55.41 124.28,55.38 124.68,55.34 125.07,55.32 125.47,55.31 125.86,55.31 126.26,55.29 126.65,55.25 127.05,55.21 127.45,55.19 127.84,55.2 128.24,55.23 128.63,55.25 129.03,55.24 129.42,55.21 129.82,55.17 130.22,55.14 130.61,55.13 131.01,55.13 131.4,55.14 131.8,55.14 132.19,55.14 132.59,55.11 132.98,55.08 133.38,55.05 133.78,55.02 134.17,55.01 134.57,55 134.96,55 135.36,55 135.75,55 136.15,55 136.55,54.99 136.94,54.97 137.34,54.95 137.73,54.91 138.13,54.88 138.52,54.86 138.92,54.87 139.31,54.88 139.71,54.9 140.11,54.89 140.5,54.87 140.9,54.85 141.29,54.84 141.69,54.83 142.08,54.83 142.48,54.83 142.88,54.83 143.27,54.82 143.67,54.82 144.06,54.82 144.46,54.82 144.85,54.81 145.25,54.8 145.64,54.79 146.04,54.77 146.44,54.77 146.83,54.77 147.23,54.78 147.62,54.78 148.02,54.78 148.41,54.77 148.81,54.75 149.21,54.73 149.6,54.73 150,54.73 150.39,54.73 150.79,54.72 151.18,54.72 151.58,54.72 151.98,54.72 152.37,54.71 152.77,54.7 153.16,54.68 153.56,54.67 153.95,54.65 154.35,54.64 154.74,54.63 155.14,54.61 155.54,54.59 155.93,54.56 156.33,54.55 156.72,54.56 157.12,54.58 157.51,54.6 157.91,54.61 158.31,54.63 158.7,54.63 159.1,54.62 159.49,54.6 159.89,54.6 160.28,54.6 160.68,54.6 161.07,54.59 161.47,54.58 161.87,54.58 162.26,54.59 162.66,54.59 163.05,54.59 163.45,54.58 163.84,54.57 164.24,54.55 164.64,54.55 165.03,54.55 165.43,54.55 165.82,54.55 166.22,54.54 166.61,54.53 167.01,54.52 167.41,54.51 167.8,54.49 168.2,54.48 168.59,54.48 168.99,54.48 169.38,54.48 169.78,54.48 170.17,54.47 170.57,54.47 170.97,54.46 171.36,54.45 171.76,54.44 172.15,54.44 172.55,54.44 172.94,54.44 173.34,54.44 173.74,54.44 174.13,54.44 174.53,54.44 174.92,54.43 175.32,54.42 175.71,54.4 176.11,54.39 176.5,54.38 176.9,54.39 177.3,54.4 177.69,54.41 178.09,54.42 178.48,54.42 178.88,54.42 179.27,54.41 179.67,54.4 180.07,54.39 180.46,54.39 180.86,54.39 181.25,54.38 181.65,54.38 182.04,54.38 182.44,54.39 182.84,54.4 183.23,54.39 183.63,54.38 184.02,54.37 184.42,54.36 184.81,54.36 185.21,54.36 185.6,54.35 186,54.34 186.4,54.34 186.79,54.35 187.19,54.37 187.58,54.38 187.98,54.39 188.37,54.37 188.77,54.34 189.17,54.32 189.56,54.32 189.96,54.32 190.35,54.33 190.75,54.33 191.14,54.33 191.54,54.34 191.93,54.35 192.33,54.35 192.73,54.35 193.12,54.34 193.52,54.34 193.91,54.35 194.31,54.35 194.7,54.35 195.1,54.33 195.5,54.32 195.89,54.32 196.29,54.31 196.68,54.3 197.08,54.29 197.47,54.29 197.87,54.31 198.26,54.32 198.66,54.32 199.06,54.31 199.45,54.31 199.85,54.3 200.24,54.3 200.64,54.31 201.03,54.31 201.43,54.31 201.83,54.3 202.22,54.3 202.62,54.28 203.01,54.27 203.41,54.26 203.8,54.25 204.2,54.25 204.6,54.25 204.99,54.26 205.39,54.27 205.78,54.27 206.18,54.26 206.57,54.25 206.97,54.24 207.36,54.24 207.76,54.24 208.16,54.24 208.55,54.25 208.95,54.25 209.34,54.25 209.74,54.25 210.13,54.24 210.53,54.25 210.93,54.25 211.32,54.25 211.72,54.24 212.11,54.25 212.51,54.25 212.9,54.26 213.3,54.26 213.69,54.26 214.09,54.24 214.49,54.23 214.88,54.22 215.28,54.22 215.67,54.21 216.07,54.21 216.46,54.2 216.86,54.2 217.26,54.21 217.65,54.22 218.05,54.23 218.44,54.25 218.84,54.25 219.23,54.23 219.63,54.22 220.03,54.21 220.42,54.21 220.82,54.21 221.21,54.22 221.61,54.22 222,54.23 222.4,54.23 222.79,54.22 223.19,54.2 223.59,54.19 223.98,54.19 224.38,54.19 224.77,54.2 225.17,54.2 225.56,54.2 225.96,54.2 226.36,54.21 226.75,54.22 227.15,54.22 227.54,54.22 227.94,54.21 228.33,54.2 228.73,54.19 229.12,54.18 229.52,54.19 229.92,54.2 230.31,54.2 230.71,54.2 231.1,54.19 231.5,54.19 231.89,54.19 232.29,54.19 232.69,54.19 233.08,54.18 233.48,54.18 233.87,54.18 234.27,54.18 234.66,54.18 235.06,54.18 235.45,54.18 235.85,54.18 236.25,54.17 236.64,54.17 237.04,54.18 237.43,54.18 237.83,54.18 238.22,54.17 238.62,54.16 239.02,54.15 239.41,54.15 239.81,54.16 240.2,54.16 240.6,54.16 240.99,54.15 241.39,54.15 241.79,54.15 242.18,54.15 242.58,54.16 242.97,54.17 243.37,54.18 243.76,54.18 244.16,54.18 244.55,54.18 244.95,54.18 245.35,54.19 245.74,54.18 246.14,54.17 246.53,54.16 246.93,54.16 247.32,54.16 247.72,54.16 248.12,54.15 248.51,54.14 248.91,54.14 249.3,54.15 249.7,54.16 250.09,54.15 250.49,54.15 250.88,54.14 251.28,54.15 251.68,54.15 252.07,54.16 252.47,54.15 252.86,54.15 253.26,54.16 253.65,54.16 254.05,54.16 254.45,54.15 254.84,54.14 255.24,54.14 255.63,54.14 256.03,54.14 256.42,54.14 256.82,54.14 257.22,54.15 257.61,54.15 258.01,54.15 258.4,54.13 258.8,54.11 259.19,54.07 259.59,54.04 259.98,54 260.38,53.98 260.78,53.97 261.17,53.97" stroke-dasharray="none" stroke="rgb(31,120,180)" stroke-width="0.75" opacity="1" stroke-opacity="1" fill="none"/>
          </g>
          <g id="Fig:densplot_01.xyplot.lines.group.2.panel.1.1.1">
            <polyline id="Fig:densplot_01.xyplot.lines.group.2.panel.1.1.1.1" points="60.14,53.97 60.54,53.99 60.93,54.21 61.32,55.33 61.71,59.39 62.11,69.91 62.5,89.86 62.89,118.19 63.29,148.52 63.68,172.74 64.07,186.62 64.46,191.45 64.86,191.24 65.25,189.36 65.64,186.88 66.03,182.6 66.43,174.84 66.82,163.76 67.21,151.43 67.61,140.04 68,130.51 68.39,122.68 68.78,116.16 69.18,110.55 69.57,105.53 69.96,101.11 70.36,97.47 70.75,94.43 71.14,91.56 71.53,88.85 71.93,86.45 72.32,84.39 72.71,82.55 73.11,80.83 73.5,79.19 73.89,77.54 74.28,75.97 74.68,74.65 75.07,73.55 75.46,72.59 75.86,71.72 76.25,70.89 76.64,70.15 77.03,69.45 77.43,68.77 77.82,68.06 78.21,67.32 78.6,66.65 79,66.09 79.39,65.6 79.78,65.16 80.18,64.81 80.57,64.51 80.96,64.16 81.35,63.77 81.75,63.42 82.14,63.12 82.53,62.83 82.93,62.51 83.32,62.19 83.71,61.92 84.1,61.67 84.5,61.4 84.89,61.17 85.28,61 85.68,60.82 86.07,60.62 86.46,60.48 86.85,60.38 87.25,60.24 87.64,60.09 88.03,59.97 88.43,59.82 88.82,59.63 89.21,59.44 89.6,59.31 90,59.19 90.39,59.02 90.78,58.85 91.18,58.74 91.57,58.66 91.96,58.56 92.35,58.44 92.75,58.28 93.14,58.14 93.53,58.05 93.92,58.01 94.32,57.97 94.71,57.91 95.1,57.86 95.5,57.8 95.89,57.74 96.28,57.65 96.67,57.53 97.07,57.41 97.46,57.31 97.85,57.2 98.25,57.14 98.64,57.12 99.03,57.12 99.42,57.1 99.82,57.06 100.21,57.02 100.6,56.95 101,56.86 101.39,56.78 101.78,56.76 102.17,56.77 102.57,56.74 102.96,56.68 103.35,56.63 103.75,56.59 104.14,56.5 104.53,56.41 104.92,56.35 105.32,56.32 105.71,56.31 106.1,56.29 106.49,56.26 106.89,56.23 107.28,56.18 107.67,56.11 108.07,56.06 108.46,56.05 108.85,56.07 109.24,56.04 109.64,55.97 110.03,55.89 110.42,55.83 110.82,55.81 111.21,55.81 111.6,55.79 111.99,55.75 112.39,55.71 112.78,55.67 113.17,55.67 113.57,55.68 113.96,55.66 114.35,55.62 114.74,55.55 115.14,55.51 115.53,55.54 115.92,55.59 116.32,55.6 116.71,55.54 117.1,55.47 117.49,55.42 117.89,55.39 118.28,55.39 118.67,55.41 119.07,55.46 119.46,55.47 119.85,55.43 120.24,55.38 120.64,55.33 121.03,55.29 121.42,55.26 121.81,55.25 122.21,55.25 122.6,55.25 122.99,55.24 123.39,55.22 123.78,55.22 124.17,55.23 124.56,55.22 124.96,55.19 125.35,55.14 125.74,55.11 126.14,55.09 126.53,55.1 126.92,55.12 127.31,55.12 127.71,55.11 128.1,55.09 128.49,55.06 128.89,55.04 129.28,55.01 129.67,55 130.06,55 130.46,54.99 130.85,54.97 131.24,54.94 131.64,54.93 132.03,54.93 132.42,54.93 132.81,54.92 133.21,54.92 133.6,54.92 133.99,54.92 134.38,54.92 134.78,54.92 135.17,54.93 135.56,54.93 135.96,54.92 136.35,54.88 136.74,54.84 137.13,54.81 137.53,54.82 137.92,54.83 138.31,54.82 138.71,54.79 139.1,54.76 139.49,54.75 139.88,54.74 140.28,54.72 140.67,54.7 141.06,54.69 141.46,54.69 141.85,54.69 142.24,54.69 142.63,54.69 143.03,54.68 143.42,54.66 143.81,54.65 144.21,54.66 144.6,54.67 144.99,54.67 145.38,54.68 145.78,54.68 146.17,54.69 146.56,54.69 146.96,54.68 147.35,54.66 147.74,54.65 148.13,54.63 148.53,54.61 148.92,54.6 149.31,54.58 149.7,54.58 150.1,54.58 150.49,54.59 150.88,54.58 151.28,54.57 151.67,54.54 152.06,54.52 152.45,54.52 152.85,54.54 153.24,54.55 153.63,54.53 154.03,54.53 154.42,54.55 154.81,54.57 155.2,54.57 155.6,54.56 155.99,54.56 156.38,54.56 156.78,54.56 157.17,54.54 157.56,54.53 157.95,54.51 158.35,54.5 158.74,54.51 159.13,54.52 159.53,54.51 159.92,54.49 160.31,54.48 160.7,54.48 161.1,54.49 161.49,54.5 161.88,54.5 162.27,54.47 162.67,54.43 163.06,54.42 163.45,54.44 163.85,54.45 164.24,54.45 164.63,54.45 165.02,54.45 165.42,54.44 165.81,54.41 166.2,54.39 166.6,54.37 166.99,54.37 167.38,54.39 167.77,54.41 168.17,54.41 168.56,54.41 168.95,54.4 169.35,54.4 169.74,54.4 170.13,54.4 170.52,54.39 170.92,54.39 171.31,54.4 171.7,54.4 172.1,54.39 172.49,54.38 172.88,54.36 173.27,54.37 173.67,54.39 174.06,54.4 174.45,54.4 174.84,54.38 175.24,54.36 175.63,54.35 176.02,54.35 176.42,54.36 176.81,54.37 177.2,54.37 177.59,54.36 177.99,54.35 178.38,54.35 178.77,54.35 179.17,54.36 179.56,54.36 179.95,54.36 180.34,54.35 180.74,54.33 181.13,54.32 181.52,54.31 181.92,54.32 182.31,54.33 182.7,54.31 183.09,54.29 183.49,54.29 183.88,54.31 184.27,54.33 184.67,54.33 185.06,54.31 185.45,54.29 185.84,54.27 186.24,54.26 186.63,54.26 187.02,54.26 187.42,54.27 187.81,54.3 188.2,54.31 188.59,54.3 188.99,54.29 189.38,54.28 189.77,54.27 190.16,54.26 190.56,54.27 190.95,54.28 191.34,54.3 191.74,54.29 192.13,54.27 192.52,54.26 192.91,54.25 193.31,54.24 193.7,54.24 194.09,54.25 194.49,54.26 194.88,54.27 195.27,54.27 195.66,54.27 196.06,54.28 196.45,54.27 196.84,54.26 197.24,54.26 197.63,54.26 198.02,54.26 198.41,54.25 198.81,54.24 199.2,54.23 199.59,54.23 199.99,54.24 200.38,54.25 200.77,54.24 201.16,54.22 201.56,54.21 201.95,54.19 202.34,54.19 202.73,54.2 203.13,54.21 203.52,54.23 203.91,54.23 204.31,54.22 204.7,54.22 205.09,54.23 205.48,54.24 205.88,54.23 206.27,54.21 206.66,54.2 207.06,54.19 207.45,54.2 207.84,54.22 208.23,54.22 208.63,54.21 209.02,54.21 209.41,54.21 209.81,54.21 210.2,54.2 210.59,54.2 210.98,54.2 211.38,54.2 211.77,54.2 212.16,54.2 212.56,54.2 212.95,54.2 213.34,54.19 213.73,54.17 214.13,54.16 214.52,54.15 214.91,54.15 215.31,54.16 215.7,54.18 216.09,54.21 216.48,54.23 216.88,54.23 217.27,54.21 217.66,54.2 218.05,54.18 218.45,54.16 218.84,54.16 219.23,54.18 219.63,54.19 220.02,54.18 220.41,54.18 220.8,54.18 221.2,54.18 221.59,54.18 221.98,54.18 222.38,54.16 222.77,54.15 223.16,54.16 223.55,54.16 223.95,54.16 224.34,54.15 224.73,54.16 225.13,54.16 225.52,54.16 225.91,54.15 226.3,54.15 226.7,54.16 227.09,54.16 227.48,54.16 227.88,54.15 228.27,54.15 228.66,54.16 229.05,54.16 229.45,54.16 229.84,54.15 230.23,54.15 230.62,54.15 231.02,54.15 231.41,54.14 231.8,54.14 232.2,54.14 232.59,54.14 232.98,54.14 233.37,54.14 233.77,54.13 234.16,54.14 234.55,54.14 234.95,54.15 235.34,54.15 235.73,54.15 236.12,54.15 236.52,54.16 236.91,54.16 237.3,54.17 237.7,54.17 238.09,54.17 238.48,54.16 238.87,54.14 239.27,54.13 239.66,54.13 240.05,54.12 240.45,54.11 240.84,54.11 241.23,54.11 241.62,54.1 242.02,54.09 242.41,54.07 242.8,54.09 243.2,54.12 243.59,54.14 243.98,54.15 244.37,54.14 244.77,54.14 245.16,54.13 245.55,54.12 245.94,54.11 246.34,54.11 246.73,54.12 247.12,54.13 247.52,54.14 247.91,54.12 248.3,54.11 248.69,54.1 249.09,54.1 249.48,54.09 249.87,54.09 250.27,54.1 250.66,54.11 251.05,54.11 251.44,54.11 251.84,54.1 252.23,54.1 252.62,54.11 253.02,54.11 253.41,54.12 253.8,54.12 254.19,54.12 254.59,54.12 254.98,54.12 255.37,54.11 255.77,54.1 256.16,54.1 256.55,54.09 256.94,54.08 257.34,54.08 257.73,54.09 258.12,54.11 258.51,54.12 258.91,54.1 259.3,54.06 259.69,54.01 260.09,53.98 260.48,53.97 260.87,53.97" stroke-dasharray="none" stroke="rgb(31,120,180)" stroke-width="0.75" opacity="1" stroke-opacity="1" fill="none"/>
          </g>
          <g id="Fig:densplot_01.xyplot.lines.group.3.panel.1.1.1">
            <polyline id="Fig:densplot_01.xyplot.lines.group.3.panel.1.1.1.1" points="60.67,53.97 61.06,53.98 61.45,54.16 61.84,55.63 62.23,62.61 62.63,83.26 63.02,121.91 63.41,168.67 63.8,205.47 64.19,222.22 64.58,221.91 64.97,213.56 65.36,202.8 65.75,192.09 66.14,180.9 66.54,172.05 66.93,167.05 67.32,166.08 67.71,165.29 68.1,158.97 68.49,145.94 68.88,130.11 69.27,115.91 69.66,105.55 70.05,98.64 70.44,93.74 70.84,89.77 71.23,86.11 71.62,83.16 72.01,80.97 72.4,78.97 72.79,76.99 73.18,75.26 73.57,73.76 73.96,72.47 74.35,71.4 74.74,70.38 75.14,69.41 75.53,68.61 75.92,67.8 76.31,66.93 76.7,66.14 77.09,65.59 77.48,65.29 77.87,64.97 78.26,64.45 78.65,63.89 79.04,63.44 79.44,63.12 79.83,62.8 80.22,62.5 80.61,62.25 81,61.96 81.39,61.58 81.78,61.18 82.17,60.88 82.56,60.63 82.95,60.42 83.35,60.31 83.74,60.23 84.13,60.02 84.52,59.76 84.91,59.54 85.3,59.35 85.69,59.18 86.08,59.07 86.47,59.01 86.86,58.95 87.25,58.79 87.65,58.54 88.04,58.36 88.43,58.24 88.82,58.14 89.21,58.12 89.6,58.07 89.99,57.98 90.38,57.8 90.77,57.66 91.16,57.58 91.55,57.53 91.95,57.53 92.34,57.54 92.73,57.5 93.12,57.41 93.51,57.31 93.9,57.2 94.29,57.1 94.68,57.04 95.07,56.98 95.46,56.86 95.85,56.68 96.25,56.57 96.64,56.53 97.03,56.54 97.42,56.59 97.81,56.54 98.2,56.52 98.59,56.51 98.98,56.44 99.37,56.37 99.76,56.32 100.16,56.24 100.55,56.14 100.94,56.1 101.33,56.06 101.72,56.04 102.11,56.01 102.5,55.98 102.89,55.9 103.28,55.82 103.67,55.82 104.06,55.88 104.46,55.89 104.85,55.88 105.24,55.86 105.63,55.82 106.02,55.81 106.41,55.75 106.8,55.69 107.19,55.66 107.58,55.65 107.97,55.62 108.36,55.55 108.76,55.49 109.15,55.45 109.54,55.41 109.93,55.41 110.32,55.41 110.71,55.44 111.1,55.43 111.49,55.41 111.88,55.39 112.27,55.35 112.67,55.32 113.06,55.31 113.45,55.31 113.84,55.29 114.23,55.23 114.62,55.19 115.01,55.19 115.4,55.18 115.79,55.18 116.18,55.19 116.57,55.19 116.97,55.15 117.36,55.12 117.75,55.12 118.14,55.14 118.53,55.13 118.92,55.08 119.31,55.03 119.7,55.04 120.09,55.02 120.48,54.97 120.87,54.95 121.27,54.95 121.66,54.96 122.05,54.93 122.44,54.88 122.83,54.85 123.22,54.87 123.61,54.88 124,54.85 124.39,54.78 124.78,54.77 125.17,54.8 125.57,54.83 125.96,54.87 126.35,54.88 126.74,54.86 127.13,54.78 127.52,54.74 127.91,54.74 128.3,54.76 128.69,54.76 129.08,54.74 129.48,54.71 129.87,54.71 130.26,54.71 130.65,54.72 131.04,54.74 131.43,54.74 131.82,54.73 132.21,54.73 132.6,54.7 132.99,54.66 133.38,54.66 133.78,54.68 134.17,54.71 134.56,54.69 134.95,54.64 135.34,54.6 135.73,54.57 136.12,54.56 136.51,54.59 136.9,54.59 137.29,54.56 137.68,54.54 138.08,54.54 138.47,54.55 138.86,54.56 139.25,54.54 139.64,54.53 140.03,54.54 140.42,54.55 140.81,54.54 141.2,54.53 141.59,54.53 141.98,54.51 142.38,54.52 142.77,54.55 143.16,54.53 143.55,54.49 143.94,54.49 144.33,54.51 144.72,54.52 145.11,54.51 145.5,54.5 145.89,54.48 146.29,54.47 146.68,54.49 147.07,54.51 147.46,54.51 147.85,54.52 148.24,54.52 148.63,54.51 149.02,54.5 149.41,54.49 149.8,54.45 150.19,54.44 150.59,54.44 150.98,54.44 151.37,54.44 151.76,54.44 152.15,54.44 152.54,54.41 152.93,54.4 153.32,54.41 153.71,54.39 154.1,54.35 154.49,54.34 154.89,54.36 155.28,54.37 155.67,54.38 156.06,54.39 156.45,54.41 156.84,54.43 157.23,54.4 157.62,54.36 158.01,54.36 158.4,54.37 158.79,54.38 159.19,54.38 159.58,54.38 159.97,54.4 160.36,54.41 160.75,54.39 161.14,54.36 161.53,54.35 161.92,54.35 162.31,54.35 162.7,54.35 163.1,54.36 163.49,54.35 163.88,54.34 164.27,54.29 164.66,54.28 165.05,54.31 165.44,54.33 165.83,54.34 166.22,54.33 166.61,54.33 167,54.32 167.4,54.32 167.79,54.32 168.18,54.31 168.57,54.31 168.96,54.32 169.35,54.34 169.74,54.34 170.13,54.32 170.52,54.31 170.91,54.33 171.3,54.32 171.7,54.29 172.09,54.27 172.48,54.27 172.87,54.29 173.26,54.3 173.65,54.3 174.04,54.27 174.43,54.26 174.82,54.27 175.21,54.28 175.6,54.28 176,54.26 176.39,54.24 176.78,54.23 177.17,54.25 177.56,54.26 177.95,54.25 178.34,54.24 178.73,54.23 179.12,54.25 179.51,54.26 179.91,54.25 180.3,54.22 180.69,54.21 181.08,54.21 181.47,54.23 181.86,54.23 182.25,54.22 182.64,54.2 183.03,54.2 183.42,54.22 183.81,54.24 184.21,54.24 184.6,54.23 184.99,54.21 185.38,54.2 185.77,54.21 186.16,54.22 186.55,54.21 186.94,54.2 187.33,54.21 187.72,54.2 188.11,54.2 188.51,54.21 188.9,54.2 189.29,54.2 189.68,54.2 190.07,54.19 190.46,54.19 190.85,54.2 191.24,54.21 191.63,54.2 192.02,54.19 192.41,54.2 192.81,54.18 193.2,54.16 193.59,54.16 193.98,54.17 194.37,54.19 194.76,54.18 195.15,54.16 195.54,54.16 195.93,54.17 196.32,54.18 196.72,54.17 197.11,54.16 197.5,54.14 197.89,54.13 198.28,54.14 198.67,54.16 199.06,54.18 199.45,54.18 199.84,54.17 200.23,54.16 200.62,54.16 201.02,54.14 201.41,54.15 201.8,54.17 202.19,54.17 202.58,54.16 202.97,54.16 203.36,54.16 203.75,54.15 204.14,54.17 204.53,54.18 204.92,54.17 205.32,54.17 205.71,54.16 206.1,54.14 206.49,54.12 206.88,54.13 207.27,54.13 207.66,54.13 208.05,54.14 208.44,54.14 208.83,54.12 209.22,54.11 209.62,54.12 210.01,54.13 210.4,54.13 210.79,54.13 211.18,54.14 211.57,54.16 211.96,54.15 212.35,54.12 212.74,54.11 213.13,54.11 213.53,54.12 213.92,54.12 214.31,54.13 214.7,54.12 215.09,54.12 215.48,54.12 215.87,54.11 216.26,54.11 216.65,54.12 217.04,54.12 217.43,54.12 217.83,54.13 218.22,54.12 218.61,54.12 219,54.12 219.39,54.11 219.78,54.12 220.17,54.12 220.56,54.11 220.95,54.11 221.34,54.11 221.73,54.1 222.13,54.09 222.52,54.1 222.91,54.09 223.3,54.1 223.69,54.11 224.08,54.11 224.47,54.09 224.86,54.1 225.25,54.11 225.64,54.1 226.03,54.09 226.43,54.1 226.82,54.12 227.21,54.13 227.6,54.13 227.99,54.12 228.38,54.1 228.77,54.08 229.16,54.09 229.55,54.09 229.94,54.08 230.34,54.08 230.73,54.07 231.12,54.08 231.51,54.08 231.9,54.1 232.29,54.12 232.68,54.11 233.07,54.09 233.46,54.07 233.85,54.07 234.24,54.08 234.64,54.09 235.03,54.1 235.42,54.11 235.81,54.12 236.2,54.11 236.59,54.1 236.98,54.09 237.37,54.09 237.76,54.09 238.15,54.1 238.54,54.1 238.94,54.1 239.33,54.1 239.72,54.1 240.11,54.09 240.5,54.07 240.89,54.06 241.28,54.06 241.67,54.07 242.06,54.08 242.45,54.08 242.84,54.06 243.24,54.05 243.63,54.05 244.02,54.07 244.41,54.08 244.8,54.09 245.19,54.09 245.58,54.07 245.97,54.06 246.36,54.06 246.75,54.07 247.15,54.08 247.54,54.08 247.93,54.07 248.32,54.08 248.71,54.08 249.1,54.08 249.49,54.07 249.88,54.07 250.27,54.06 250.66,54.06 251.05,54.06 251.45,54.06 251.84,54.06 252.23,54.08 252.62,54.08 253.01,54.07 253.4,54.07 253.79,54.06 254.18,54.05 254.57,54.05 254.96,54.06 255.35,54.08 255.75,54.07 256.14,54.07 256.53,54.07 256.92,54.07 257.31,54.06 257.7,54.05 258.09,54.05 258.48,54.05 258.87,54.05 259.26,54.04 259.65,54.01 260.05,53.98 260.44,53.97" stroke-dasharray="none" stroke="rgb(31,120,180)" stroke-width="0.75" opacity="1" stroke-opacity="1" fill="none"/>
          </g>
          <g id="Fig:densplot_01.xyplot.lines.group.4.panel.1.1.1">
            <polyline id="Fig:densplot_01.xyplot.lines.group.4.panel.1.1.1.1" points="61.36,53.97 61.76,53.97 62.15,53.97 62.54,54 62.93,54.06 63.33,54.22 63.72,54.58 64.11,55.28 64.5,56.5 64.89,58.39 65.29,61.04 65.68,64.4 66.07,68.27 66.46,72.38 66.86,76.47 67.25,80.42 67.64,84.25 68.03,88.08 68.42,92.11 68.82,96.58 69.21,101.64 69.6,107.18 69.99,112.67 70.39,117.25 70.78,120.04 71.17,120.57 71.56,118.96 71.96,115.9 72.35,112.29 72.74,108.92 73.13,106.25 73.52,104.4 73.92,103.24 74.31,102.54 74.7,102.11 75.09,101.79 75.49,101.51 75.88,101.22 76.27,100.88 76.66,100.47 77.05,99.97 77.45,99.38 77.84,98.69 78.23,97.92 78.62,97.08 79.02,96.17 79.41,95.2 79.8,94.15 80.19,93.05 80.58,91.93 80.98,90.81 81.37,89.67 81.76,88.5 82.15,87.31 82.55,86.14 82.94,85 83.33,83.91 83.72,82.84 84.11,81.77 84.51,80.7 84.9,79.62 85.29,78.57 85.68,77.59 86.08,76.69 86.47,75.86 86.86,75.08 87.25,74.33 87.65,73.57 88.04,72.82 88.43,72.1 88.82,71.41 89.21,70.79 89.61,70.21 90,69.67 90.39,69.15 90.78,68.68 91.18,68.24 91.57,67.83 91.96,67.41 92.35,66.97 92.74,66.52 93.14,66.06 93.53,65.62 93.92,65.19 94.31,64.78 94.71,64.39 95.1,64.03 95.49,63.71 95.88,63.46 96.27,63.23 96.67,62.99 97.06,62.71 97.45,62.41 97.84,62.1 98.24,61.83 98.63,61.61 99.02,61.43 99.41,61.26 99.8,61.09 100.2,60.91 100.59,60.74 100.98,60.58 101.37,60.43 101.77,60.27 102.16,60.11 102.55,59.93 102.94,59.77 103.34,59.62 103.73,59.49 104.12,59.38 104.51,59.28 104.9,59.17 105.3,59.06 105.69,58.93 106.08,58.81 106.47,58.7 106.87,58.59 107.26,58.47 107.65,58.35 108.04,58.24 108.43,58.14 108.83,58.06 109.22,58.01 109.61,57.96 110,57.9 110.4,57.84 110.79,57.76 111.18,57.67 111.57,57.58 111.96,57.48 112.36,57.4 112.75,57.35 113.14,57.3 113.53,57.25 113.93,57.19 114.32,57.12 114.71,57.06 115.1,57.01 115.49,56.96 115.89,56.91 116.28,56.85 116.67,56.79 117.06,56.72 117.46,56.66 117.85,56.61 118.24,56.55 118.63,56.5 119.03,56.46 119.42,56.42 119.81,56.38 120.2,56.35 120.59,56.31 120.99,56.26 121.38,56.22 121.77,56.18 122.16,56.15 122.56,56.13 122.95,56.1 123.34,56.07 123.73,56.03 124.12,55.99 124.52,55.94 124.91,55.9 125.3,55.87 125.69,55.85 126.09,55.83 126.48,55.81 126.87,55.77 127.26,55.73 127.65,55.67 128.05,55.62 128.44,55.58 128.83,55.56 129.22,55.55 129.62,55.56 130.01,55.55 130.4,55.52 130.79,55.48 131.18,55.44 131.58,55.4 131.97,55.37 132.36,55.36 132.75,55.35 133.15,55.35 133.54,55.34 133.93,55.32 134.32,55.3 134.72,55.27 135.11,55.24 135.5,55.22 135.89,55.21 136.28,55.19 136.68,55.19 137.07,55.19 137.46,55.2 137.85,55.2 138.25,55.2 138.64,55.19 139.03,55.17 139.42,55.15 139.81,55.13 140.21,55.11 140.6,55.08 140.99,55.06 141.38,55.05 141.78,55.04 142.17,55.05 142.56,55.06 142.95,55.06 143.34,55.04 143.74,55.02 144.13,55 144.52,54.98 144.91,54.96 145.31,54.95 145.7,54.94 146.09,54.92 146.48,54.9 146.87,54.88 147.27,54.87 147.66,54.86 148.05,54.86 148.44,54.85 148.84,54.83 149.23,54.81 149.62,54.79 150.01,54.77 150.41,54.76 150.8,54.76 151.19,54.75 151.58,54.74 151.97,54.72 152.37,54.71 152.76,54.71 153.15,54.71 153.54,54.71 153.94,54.71 154.33,54.71 154.72,54.7 155.11,54.68 155.5,54.66 155.9,54.64 156.29,54.63 156.68,54.62 157.07,54.62 157.47,54.63 157.86,54.65 158.25,54.67 158.64,54.68 159.03,54.68 159.43,54.67 159.82,54.65 160.21,54.63 160.6,54.6 161,54.58 161.39,54.56 161.78,54.56 162.17,54.55 162.56,54.55 162.96,54.54 163.35,54.54 163.74,54.53 164.13,54.52 164.53,54.52 164.92,54.52 165.31,54.53 165.7,54.53 166.09,54.53 166.49,54.52 166.88,54.51 167.27,54.51 167.66,54.5 168.06,54.5 168.45,54.5 168.84,54.5 169.23,54.5 169.63,54.5 170.02,54.5 170.41,54.5 170.8,54.5 171.19,54.5 171.59,54.48 171.98,54.46 172.37,54.44 172.76,54.44 173.16,54.44 173.55,54.45 173.94,54.45 174.33,54.44 174.72,54.43 175.12,54.43 175.51,54.43 175.9,54.43 176.29,54.43 176.69,54.43 177.08,54.42 177.47,54.41 177.86,54.4 178.25,54.39 178.65,54.4 179.04,54.4 179.43,54.4 179.82,54.4 180.22,54.39 180.61,54.38 181,54.38 181.39,54.38 181.78,54.38 182.18,54.38 182.57,54.38 182.96,54.38 183.35,54.38 183.75,54.38 184.14,54.38 184.53,54.37 184.92,54.35 185.32,54.34 185.71,54.32 186.1,54.31 186.49,54.31 186.88,54.31 187.28,54.32 187.67,54.33 188.06,54.34 188.45,54.35 188.85,54.34 189.24,54.33 189.63,54.33 190.02,54.33 190.41,54.33 190.81,54.32 191.2,54.32 191.59,54.31 191.98,54.31 192.38,54.31 192.77,54.3 193.16,54.3 193.55,54.3 193.94,54.29 194.34,54.28 194.73,54.28 195.12,54.27 195.51,54.27 195.91,54.27 196.3,54.26 196.69,54.26 197.08,54.26 197.47,54.27 197.87,54.28 198.26,54.28 198.65,54.28 199.04,54.28 199.44,54.27 199.83,54.26 200.22,54.25 200.61,54.25 201.01,54.24 201.4,54.24 201.79,54.24 202.18,54.24 202.57,54.24 202.97,54.24 203.36,54.24 203.75,54.23 204.14,54.23 204.54,54.23 204.93,54.23 205.32,54.23 205.71,54.24 206.1,54.24 206.5,54.25 206.89,54.25 207.28,54.25 207.67,54.25 208.07,54.25 208.46,54.25 208.85,54.24 209.24,54.23 209.63,54.22 210.03,54.21 210.42,54.21 210.81,54.2 211.2,54.2 211.6,54.19 211.99,54.18 212.38,54.17 212.77,54.17 213.16,54.18 213.56,54.19 213.95,54.2 214.34,54.2 214.73,54.2 215.13,54.2 215.52,54.2 215.91,54.19 216.3,54.18 216.7,54.18 217.09,54.17 217.48,54.17 217.87,54.16 218.26,54.16 218.66,54.16 219.05,54.16 219.44,54.16 219.83,54.16 220.23,54.16 220.62,54.16 221.01,54.16 221.4,54.16 221.79,54.16 222.19,54.16 222.58,54.16 222.97,54.17 223.36,54.17 223.76,54.17 224.15,54.17 224.54,54.17 224.93,54.16 225.32,54.16 225.72,54.16 226.11,54.16 226.5,54.16 226.89,54.16 227.29,54.16 227.68,54.16 228.07,54.16 228.46,54.16 228.85,54.16 229.25,54.16 229.64,54.16 230.03,54.16 230.42,54.17 230.82,54.16 231.21,54.16 231.6,54.15 231.99,54.14 232.39,54.14 232.78,54.13 233.17,54.13 233.56,54.13 233.95,54.12 234.35,54.12 234.74,54.12 235.13,54.12 235.52,54.13 235.92,54.13 236.31,54.14 236.7,54.15 237.09,54.15 237.48,54.16 237.88,54.16 238.27,54.15 238.66,54.15 239.05,54.15 239.45,54.14 239.84,54.14 240.23,54.14 240.62,54.14 241.01,54.14 241.41,54.14 241.8,54.13 242.19,54.12 242.58,54.12 242.98,54.11 243.37,54.11 243.76,54.11 244.15,54.11 244.54,54.11 244.94,54.11 245.33,54.11 245.72,54.12 246.11,54.12 246.51,54.11 246.9,54.11 247.29,54.1 247.68,54.1 248.08,54.09 248.47,54.09 248.86,54.09 249.25,54.1 249.64,54.1 250.04,54.1 250.43,54.1 250.82,54.1 251.21,54.1 251.61,54.09 252,54.09 252.39,54.09 252.78,54.09 253.17,54.1 253.57,54.1 253.96,54.11 254.35,54.11 254.74,54.1 255.14,54.1 255.53,54.1 255.92,54.09 256.31,54.09 256.7,54.09 257.1,54.09 257.49,54.09 257.88,54.09 258.27,54.09 258.67,54.08 259.06,54.06 259.45,54.04 259.84,54.01 260.23,53.99 260.63,53.98 261.02,53.97 261.41,53.97 261.8,53.97" stroke-dasharray="none" stroke="rgb(31,120,180)" stroke-width="0.75" opacity="1" stroke-opacity="1" fill="none"/>
          </g>
        </g>
        <g id="Fig:densplot_01.panel.1.1.off.vp.2">
          <g id="Fig:densplot_01.border.panel.1.1.1">
            <rect id="Fig:densplot_01.border.panel.1.1.1.1" x="44.8" y="42.19" width="231.2" height="191.81" transform="" stroke="rgb(0,0,0)" stroke-dasharray="none" stroke-width="0.75" opacity="1" fill="none" stroke-opacity="1" fill-opacity="0"/>
          </g>
        </g>
        <g id="Fig:densplot_01..1"/>
      </g>
    </g>
  </g>
</svg>